<?xml version="1.0" encoding="utf-8"?>
<!-- Generator: Adobe Illustrator 26.1.0, SVG Export Plug-In . SVG Version: 6.00 Build 0)  -->
<svg version="1.1" id="Слой_1" xmlns="http://www.w3.org/2000/svg" xmlns:xlink="http://www.w3.org/1999/xlink" x="0px" y="0px"
	 viewBox="0 50 250 55" style="enable-background:new 0 0 250 150;" xml:space="preserve">
<style type="text/css">
	.st0{fill:#FFFFFF;}
	.st1{fill:#E5E5E5;stroke:#E5E5E5;stroke-width:0.55;stroke-miterlimit:10;}
	.st2{fill:#CACCCC;}
	.st3{fill:#0F8E98;}
</style>
<g>
	<g>
		<path class="st0" d="M77.47,58.64c0-0.25,0.22-0.45,0.5-0.45h11c3.71,0,6.56,0.74,8.56,2.23c1.99,1.49,2.99,3.51,2.99,6.08
			c0,2.57-1,4.61-2.99,6.12c-1.99,1.51-4.84,2.27-8.56,2.27h-5.78c-0.27,0-0.5,0.2-0.5,0.45v9.24c0,0.25-0.22,0.45-0.5,0.45h-4.24
			c-0.27,0-0.5-0.2-0.5-0.45V58.64z M88.76,71.53c2.42,0,4.12-0.48,5.08-1.43s1.44-2.15,1.44-3.6c0-1.45-0.48-2.64-1.44-3.57
			s-2.66-1.39-5.08-1.39h-5.57c-0.27,0-0.5,0.2-0.5,0.45v9.09c0,0.25,0.22,0.45,0.5,0.45H88.76z"/>
	</g>
	<g>
		<path class="st0" d="M114.34,58.03h4.41c0.2,0,0.38,0.11,0.46,0.27l12.24,26.1c0.14,0.3-0.1,0.63-0.46,0.63h-4.46
			c-0.2,0-0.38-0.11-0.46-0.28l-8.76-19.55c-0.18-0.42-0.34-0.82-0.47-1.2c-0.13-0.38-0.25-0.77-0.35-1.16h-0.2
			c-0.11,0.39-0.22,0.78-0.35,1.17s-0.28,0.78-0.47,1.19l-8.83,19.55c-0.08,0.17-0.26,0.28-0.46,0.28h-3.99
			c-0.35,0-0.59-0.33-0.46-0.63l12.15-26.1C113.96,58.13,114.14,58.03,114.34,58.03z M109.19,75.04h14.57
			c0.21,0,0.39,0.12,0.46,0.29l1.03,2.45c0.12,0.29-0.12,0.61-0.46,0.61h-16.65c-0.35,0-0.59-0.32-0.46-0.61l1.05-2.45
			C108.8,75.15,108.99,75.04,109.19,75.04z"/>
	</g>
	<g>
		<path class="st0" d="M135.78,58.19h4.24c0.27,0,0.5,0.2,0.5,0.45V81.2c0,0.25,0.22,0.45,0.5,0.45h14.3c0.27,0,0.5,0.2,0.5,0.45
			v2.47c0,0.25-0.22,0.45-0.5,0.45h-19.53c-0.27,0-0.5-0.2-0.5-0.45V58.64C135.28,58.39,135.5,58.19,135.78,58.19z"/>
	</g>
	<g>
		<path class="st0" d="M168.39,75.08l-10.92-16.2c-0.2-0.3,0.04-0.69,0.42-0.69h4.7c0.18,0,0.34,0.08,0.43,0.22l6.95,10.69
			c0.24,0.36,0.46,0.69,0.65,1s0.37,0.64,0.53,0.97h0.14c0.15-0.33,0.33-0.65,0.52-0.97c0.2-0.31,0.41-0.65,0.64-1l7.06-10.69
			c0.09-0.14,0.25-0.22,0.42-0.22h4.27c0.39,0,0.62,0.39,0.42,0.69l-10.83,16.09c-0.05,0.07-0.07,0.15-0.07,0.24v9.37
			c0,0.25-0.22,0.45-0.5,0.45h-4.26c-0.27,0-0.5-0.2-0.5-0.45v-9.26C168.46,75.23,168.44,75.15,168.39,75.08z"/>
	</g>
	<g>
		<path class="st0" d="M197.86,58.03h4.41c0.2,0,0.38,0.11,0.46,0.27l12.24,26.1c0.14,0.3-0.1,0.63-0.46,0.63h-4.46
			c-0.2,0-0.38-0.11-0.46-0.28l-8.76-19.55c-0.18-0.42-0.34-0.82-0.47-1.2c-0.13-0.38-0.25-0.77-0.35-1.16h-0.2
			c-0.11,0.39-0.22,0.78-0.35,1.17s-0.28,0.78-0.47,1.19l-8.83,19.55c-0.08,0.17-0.26,0.28-0.46,0.28h-3.99
			c-0.35,0-0.59-0.33-0.46-0.63l12.15-26.1C197.48,58.13,197.66,58.03,197.86,58.03z M192.71,75.04h14.57
			c0.21,0,0.39,0.12,0.46,0.29l1.03,2.45c0.12,0.29-0.12,0.61-0.46,0.61h-16.65c-0.35,0-0.59-0.32-0.46-0.61l1.05-2.45
			C192.32,75.15,192.51,75.04,192.71,75.04z"/>
	</g>
	<g>
		<path class="st0" d="M219.3,58.19h4.75c0.16,0,0.31,0.07,0.41,0.19l13.81,17.89c0.29,0.37,0.55,0.73,0.8,1.09s0.45,0.7,0.61,1.03
			h0.18c-0.02-0.38-0.03-0.79-0.03-1.22c-0.01-0.43-0.01-0.84-0.01-1.23v-17.3c0-0.25,0.22-0.45,0.5-0.45h3.87
			c0.27,0,0.5,0.2,0.5,0.45v25.93c0,0.25-0.22,0.45-0.5,0.45h-4.82c-0.16,0-0.31-0.07-0.41-0.19L225.21,67
			c-0.29-0.38-0.55-0.75-0.78-1.11c-0.23-0.36-0.45-0.7-0.65-1.02h-0.16c0.02,0.38,0.03,0.8,0.03,1.24
			c0.01,0.45,0.01,0.86,0.01,1.24v17.22c0,0.25-0.22,0.45-0.5,0.45h-3.87c-0.27,0-0.5-0.2-0.5-0.45V58.64
			C218.8,58.39,219.02,58.19,219.3,58.19z"/>
	</g>
</g>
<g>
	<path class="st1" d="M77.81,104.07l6.05-12.31h0.47l6.05,12.31h-0.69l-1.92-3.96l-0.11-0.21c-1.19-2.53-2.39-5.06-3.58-7.59
		c-1.19,2.53-2.38,5.06-3.56,7.59l-0.11,0.21l-1.92,3.96H77.81z M80.09,100.29v-0.53h8.05v0.53H80.09z"/>
	<path class="st1" d="M94.69,104.07v-8.61h0.65v2.25l-0.17-0.26c0.17-0.4,0.44-0.76,0.82-1.09c0.37-0.33,0.83-0.59,1.37-0.78
		c0.54-0.19,1.12-0.29,1.73-0.29c0.85,0,1.58,0.15,2.2,0.46c0.62,0.31,1.09,0.73,1.42,1.28c0.33,0.54,0.5,1.17,0.5,1.87v5.19h-0.65
		v-5.01c0-0.6-0.11-1.14-0.34-1.63c-0.23-0.49-0.61-0.88-1.14-1.18c-0.53-0.3-1.22-0.45-2.07-0.45c-0.69,0-1.31,0.14-1.87,0.43
		c-0.56,0.29-1,0.66-1.31,1.12c-0.32,0.46-0.47,0.94-0.47,1.44v5.27H94.69z"/>
	<path class="st1" d="M108.5,93.81v-0.88h0.97v0.88H108.5z M108.68,104.07v-8.61h0.65v8.61H108.68z"/>
	<path class="st1" d="M114.92,104.07v-8.61h0.65v2.25l-0.17-0.26c0.26-0.62,0.71-1.14,1.36-1.55c0.64-0.41,1.38-0.62,2.2-0.62
		c0.92,0,1.68,0.22,2.28,0.65c0.6,0.43,1.02,1.01,1.25,1.72h-0.17c0.27-0.76,0.75-1.35,1.44-1.76c0.69-0.41,1.45-0.62,2.3-0.62
		c0.78,0,1.44,0.16,2,0.47c0.56,0.32,0.99,0.74,1.28,1.27c0.29,0.53,0.44,1.12,0.44,1.77v5.27h-0.64V98.8
		c0-0.54-0.13-1.04-0.38-1.49c-0.25-0.46-0.61-0.82-1.09-1.09c-0.47-0.27-1.04-0.4-1.7-0.4c-0.6,0-1.16,0.14-1.66,0.41
		c-0.5,0.28-0.9,0.64-1.19,1.1c-0.29,0.46-0.44,0.95-0.44,1.48v5.27h-0.64V98.8c0-0.5-0.12-0.98-0.35-1.43s-0.58-0.82-1.05-1.12
		c-0.47-0.29-1.06-0.44-1.77-0.44c-0.59,0-1.14,0.14-1.64,0.43c-0.5,0.29-0.9,0.66-1.21,1.12c-0.3,0.46-0.45,0.94-0.45,1.43v5.27
		H114.92z"/>
	<path class="st1" d="M139.73,104.25c-0.99,0-1.89-0.2-2.71-0.59s-1.46-0.93-1.93-1.62c-0.47-0.69-0.7-1.44-0.7-2.28
		c0-0.83,0.23-1.59,0.7-2.28c0.47-0.69,1.11-1.22,1.93-1.62c0.82-0.39,1.72-0.59,2.71-0.59c0.73,0,1.42,0.11,2.07,0.33
		c0.64,0.22,1.21,0.54,1.7,0.94c0.49,0.4,0.86,0.88,1.12,1.42l-0.19,0.23v-2.74h0.65v8.61h-0.65v-2.74l0.19,0.23
		c-0.39,0.82-1.03,1.47-1.92,1.96C141.81,104.01,140.82,104.25,139.73,104.25z M139.73,103.72c0.86,0,1.65-0.17,2.37-0.5
		c0.72-0.33,1.28-0.8,1.7-1.41c0.42-0.6,0.62-1.29,0.62-2.05c0-0.76-0.21-1.44-0.62-2.05c-0.42-0.6-0.98-1.07-1.7-1.41
		c-0.72-0.33-1.51-0.5-2.37-0.5c-0.86,0-1.65,0.17-2.37,0.5c-0.72,0.33-1.28,0.8-1.7,1.41c-0.42,0.6-0.62,1.29-0.62,2.05
		c0,0.76,0.21,1.44,0.62,2.05c0.42,0.6,0.98,1.07,1.7,1.41C138.08,103.55,138.87,103.72,139.73,103.72z"/>
	<path class="st1" d="M150.77,104.07V91.42h0.65v12.66H150.77z"/>
	<path class="st1" d="M173.48,104.07V91.77h0.64v12.31H173.48z M173.7,97.92v-0.53h10.33v0.53H173.7z M183.6,104.07V91.77h0.65
		v12.31H183.6z"/>
	<path class="st1" d="M194.55,104.25c-0.92,0-1.77-0.2-2.56-0.6c-0.79-0.4-1.42-0.94-1.88-1.62c-0.47-0.68-0.7-1.44-0.7-2.27
		c0-0.82,0.24-1.57,0.71-2.26c0.47-0.69,1.11-1.23,1.92-1.63c0.8-0.4,1.67-0.6,2.6-0.6c1.05,0,1.98,0.23,2.81,0.69
		c0.82,0.46,1.45,1.05,1.87,1.78c0.42,0.72,0.59,1.45,0.5,2.19h-10.18v-0.53h9.71l0,0c-0.1-0.38-0.29-0.97-0.69-1.57
		c-0.58-0.88-1.27-1.28-1.62-1.47c-0.7-0.38-1.51-0.57-2.41-0.57c-0.82,0-1.58,0.17-2.28,0.5c-0.7,0.33-1.26,0.8-1.68,1.41
		c-0.42,0.6-0.62,1.29-0.62,2.05c0,0.76,0.21,1.44,0.62,2.04c0.42,0.6,0.97,1.07,1.67,1.41c0.7,0.34,1.45,0.51,2.25,0.51
		c0.66,0,1.27-0.1,1.84-0.3c0.57-0.2,1.05-0.47,1.44-0.8c0.39-0.33,0.7-0.7,0.92-1.1h0.69c-0.43,0.87-1.08,1.54-1.96,2.01
		C196.64,104.01,195.65,104.25,194.55,104.25z"/>
	<path class="st1" d="M209.06,104.25c-0.99,0-1.89-0.2-2.71-0.59s-1.46-0.93-1.93-1.62c-0.47-0.69-0.7-1.44-0.7-2.28
		c0-0.83,0.23-1.59,0.7-2.28c0.47-0.69,1.11-1.22,1.93-1.62c0.82-0.39,1.72-0.59,2.71-0.59c0.73,0,1.42,0.11,2.07,0.33
		c0.64,0.22,1.21,0.54,1.7,0.94c0.49,0.4,0.86,0.88,1.12,1.42l-0.19,0.23v-2.74h0.65v8.61h-0.65v-2.74l0.19,0.23
		c-0.39,0.82-1.03,1.47-1.92,1.96C211.14,104.01,210.15,104.25,209.06,104.25z M209.06,103.72c0.86,0,1.65-0.17,2.37-0.5
		c0.72-0.33,1.28-0.8,1.7-1.41c0.42-0.6,0.62-1.29,0.62-2.05c0-0.76-0.21-1.44-0.62-2.05c-0.42-0.6-0.98-1.07-1.7-1.41
		c-0.72-0.33-1.51-0.5-2.37-0.5c-0.86,0-1.65,0.17-2.37,0.5c-0.72,0.33-1.28,0.8-1.7,1.41c-0.42,0.6-0.62,1.29-0.62,2.05
		c0,0.76,0.21,1.44,0.62,2.05c0.42,0.6,0.98,1.07,1.7,1.41C207.41,103.55,208.2,103.72,209.06,103.72z"/>
	<path class="st1" d="M220.1,104.07V91.42h0.65v12.66H220.1z"/>
	<path class="st1" d="M225.48,95.99v-0.53h5.06v0.53H225.48z M229.52,104.07c-0.5,0-0.92-0.08-1.27-0.25
		c-0.34-0.16-0.6-0.4-0.78-0.69c-0.18-0.3-0.27-0.65-0.27-1.06v-8.9h0.64v8.9c0,0.48,0.15,0.85,0.44,1.1
		c0.29,0.25,0.71,0.38,1.24,0.38h1.01v0.53H229.52z"/>
	<path class="st1" d="M235.49,104.07V91.42h0.65v6.29l-0.17-0.26c0.17-0.4,0.44-0.76,0.82-1.09c0.37-0.33,0.83-0.59,1.37-0.78
		c0.54-0.19,1.11-0.29,1.73-0.29c0.85,0,1.58,0.15,2.2,0.46c0.62,0.31,1.09,0.73,1.42,1.28c0.33,0.54,0.5,1.17,0.5,1.87v5.19h-0.65
		v-5.01c0-0.6-0.11-1.14-0.34-1.63c-0.23-0.49-0.61-0.88-1.14-1.18c-0.53-0.3-1.22-0.45-2.06-0.45c-0.69,0-1.31,0.14-1.87,0.43
		c-0.56,0.29-1,0.66-1.31,1.12c-0.32,0.46-0.47,0.94-0.47,1.44v5.27H235.49z"/>
</g>
<g>
	<path class="st0" d="M54.29,97.44c0,1.12,0.01,2.25,0.01,3.37c0,1.21,0,2.43,0,3.64c-1.68-0.22-3.74-0.66-5.97-1.56
		c-0.75-0.3-2.7-1.14-4.94-2.71c-1.38-0.97-2.47-1.94-3.28-2.73C44.84,97.44,49.56,97.44,54.29,97.44z"/>
	<g>
		<path class="st0" d="M54.31,78.32c-0.17-1.27-0.33-2.54-0.5-3.82c0.26,2.31,0.44,4.78,0.49,7.41c0.02,1.1,0.02,2.18,0,3.22
			c-7.01-0.02-14.02-0.03-21.03-0.05c-0.1-0.45-0.21-1.03-0.3-1.7c-0.18-1.27-0.22-2.56-0.22-2.56c-0.03-0.93-0.01-2.12,0.14-3.51
			c1.79-0.63,3.58-1.25,5.36-1.88c3.63,0.01,7.26,0.03,10.89,0.04c1.21-1.14,3-1.22,4.15-0.31C54.18,75.89,54.58,77.12,54.31,78.32z
			"/>
		<path class="st0" d="M54.44,70.77l-0.05,3.67l-0.05,4.34c-0.01,0.88-0.03,1.76-0.04,2.65c-2.09,0-4.19,0-6.28,0
			c-1.74-0.52-3.48-1.04-5.22-1.56c-3.36,0.06-6.71,0.12-10.07,0.18c0-1.35,0.11-2.5,0.24-3.42c0.14-0.96,0.31-1.76,0.44-2.29
			c0.11-0.45,0.27-1.04,0.49-1.72c0.21-0.66,0.41-1.17,0.53-1.48c0.2-0.49,0.39-0.93,0.57-1.31c2.51,0.28,5.02,0.55,7.52,0.83
			l2.62,0.02c0.55,0,1.1,0.01,1.65,0.01C49.35,70.73,51.9,70.75,54.44,70.77z"/>
		<path class="st0" d="M54.63,56.31l-0.1,7.86l0,0.33c-1.06,2.19-2.13,4.38-3.19,6.57c-0.74-0.68-1.49-1.37-2.23-2.05
			c-0.89-0.18-1.78-0.36-2.68-0.54c-1.61-0.33-3.21-0.65-4.82-0.98c-1.23-0.8-2.46-1.59-3.7-2.39c1.05-1.37,2.61-3.09,4.84-4.66
			c0.61-0.43,2.67-1.83,5.73-2.89C50.8,56.76,52.93,56.43,54.63,56.31z"/>
		<g>
			<path class="st0" d="M64.26,62.18l-0.05,2.57l-0.98-0.02l-0.23,0h0c-0.38-0.15-0.8-0.23-1.23-0.23h-7.32v0.03h-0.22v0.01l-0.19,0
				v-0.05l0.01-0.3l0.02-1.18l0.02-1.04l0.42,0.01L64.26,62.18z"/>
			<g>
				<path class="st0" d="M68.73,62c-0.56-1.29-1.3-2.36-2.22-3.23c-0.19-0.18-0.52-0.49-1-0.82c-0.59-0.4-1.51-0.91-3.44-1.3
					c-1.53-0.31-2.69-0.35-4.18-0.39c-1.37-0.04-2.6-0.01-3.68,0.05l-0.14,6.69h0l0.42,0.01l6.11,0.12c0.69,0.01,1.28,0.23,1.78,0.6
					c0.34,0.26,0.62,0.58,0.85,0.99c0.02,0.04,0.04,0.08,0.07,0.13c0.61,0.3,1.12,0.77,1.45,1.36c0.27,0.48,0.43,1.04,0.43,1.63
					c0,0.64-0.18,1.23-0.5,1.74c-0.14,0.23-0.31,0.44-0.5,0.62c-0.33,0.33-0.74,0.59-1.18,0.75c-0.22,0.34-0.49,0.61-0.8,0.83
					c-0.53,0.37-1.12,0.56-1.8,0.54l-6.09-0.12h-0.04l-0.4-0.01l-0.01,0.52l-0.04,1.8l-0.09,4.32v0.05l6.38,0.13
					c1.87,0.04,3.54-0.39,4.98-1.3c1.43-0.89,2.56-2.19,3.39-3.87c0.81-1.67,1.25-3.64,1.3-5.89C69.82,65.7,69.47,63.72,68.73,62z"
					/>
				<path class="st0" d="M64.77,64.76l-0.03,1.45c-0.33-0.58-0.84-1.06-1.45-1.36c-0.09-0.05-0.2-0.1-0.3-0.13l0.23,0l0.98,0.02
					L64.77,64.76z"/>
				<path class="st0" d="M64.67,69.58l-0.07,3.35l-10.28-0.21h-0.07l-0.39-0.01l0.01-0.52l0.02-1.01l0-0.33l0.4,0.01l0,0.32h7.46
					c0.44,0,0.85-0.08,1.23-0.23c0.45-0.17,0.85-0.43,1.18-0.75C64.36,70.02,64.53,69.81,64.67,69.58z"/>
			</g>
		</g>
		<path class="st0" d="M54.5,64.04c0,2.83,0.01,5.66,0.01,8.48c0,0.63,0.01,1.27,0.01,1.9c-3.35-0.62-6.73-1.26-10.12-1.91
			c-3.27-0.63-6.52-1.27-9.75-1.92c0.49-1.13,1.14-2.42,2.02-3.78c0.6-0.92,1.21-1.72,1.8-2.41c2.62-0.02,5.27-0.06,7.96-0.12
			C49.17,64.22,51.86,64.14,54.5,64.04z"/>
	</g>
</g>
<g>
	<path class="st2" d="M30.79,71.15L15.67,53.08c5.05-3.77,12.14-3.05,16.17,1.76S35.35,66.79,30.79,71.15z"/>
	<path class="st2" d="M28.27,76.23L4.61,74.42c0.98-6.19,6.6-10.72,12.89-10.23S28.48,69.99,28.27,76.23z"/>
	<path class="st2" d="M54.25,88.62v5.41c-5.68,0-11.36,0-17.05,0c-0.33-0.46-0.69-1-1.05-1.6c-0.24-0.4-0.55-0.93-0.87-1.56
		c-0.31-0.61-0.66-1.36-1.01-2.24C40.93,88.62,47.59,88.62,54.25,88.62z"/>
</g>
<path class="st3" d="M32.79,81.64"/>
</svg>
