<svg width="37" height="39" viewBox="0 0 37 39" fill="none" xmlns="http://www.w3.org/2000/svg">
<path d="M34.5744 14.422C36.2015 12.716 36.9697 10.5251 36.971 8.49511C36.971 7.68877 36.8494 6.90482 36.603 6.18129C35.7895 3.78656 34.2892 2.22454 32.8289 1.28946C32.0975 0.820205 31.3753 0.501478 30.7378 0.297779C30.0971 0.094765 29.5537 0.0020568 29.1107 7.61777e-05C28.9274 0.0020568 28.7638 0.0112743 28.5574 0.075035C28.4543 0.110534 28.3313 0.15784 28.1867 0.284676C28.1157 0.348437 28.0408 0.436498 27.983 0.552136C27.9251 0.666555 27.891 0.808474 27.8916 0.941251C27.8916 1.116 27.9448 1.26455 27.9994 1.36571L28.0552 1.46954L28.1374 1.55303C28.7104 2.1313 29.2092 2.77591 29.5536 3.41802C29.8999 4.06004 30.0865 4.69224 30.0852 5.25085C30.0819 5.74563 29.9551 6.18791 29.6324 6.63744C29.1514 7.30582 28.1518 8.00635 26.3499 8.52283C24.5536 9.04061 21.9867 9.36856 18.4854 9.36726C13.817 9.37115 10.8095 8.77971 9.07596 7.95303C8.20685 7.54167 7.66271 7.0843 7.33873 6.63736C7.01612 6.18784 6.88928 5.74563 6.88631 5.25138C6.88463 4.69216 7.07096 4.05997 7.41727 3.41794C7.76167 2.77591 8.26109 2.13122 8.83341 1.55296L8.91561 1.47008L8.97114 1.36693C9.02698 1.2631 9.07962 1.11585 9.07931 0.941099C9.08023 0.809007 9.0461 0.667697 8.98828 0.552669C8.88514 0.348284 8.74085 0.237903 8.63146 0.172847C8.46227 0.0755683 8.33544 0.049287 8.21447 0.0269669C8.09418 0.00655128 7.98022 0 7.86024 0C7.41734 0.00198062 6.8742 0.0946889 6.23316 0.297702C5.27789 0.603251 4.12822 1.16643 3.05092 2.11149C1.97483 3.05518 0.978198 4.38722 0.368319 6.18129C0.121884 6.90482 0 7.68877 0 8.49511C0.00129502 10.5251 0.769547 12.716 2.39731 14.422C3.29826 15.369 4.4762 16.1417 5.89935 16.6511L0.489594 18.2453L0.818529 19.0694C0.838945 19.1161 1.30287 20.2838 2.30696 21.4937C2.81065 22.0976 3.45268 22.7147 4.2594 23.1898C5.06406 23.6649 6.04257 23.9922 7.15583 23.9916C8.30192 23.9922 9.56959 23.6472 10.9285 22.8553L10.1163 21.4595C8.95111 22.1357 7.97794 22.3756 7.15583 22.3762C6.35672 22.3748 5.68049 22.1507 5.07861 21.7979C4.17926 21.2715 3.46951 20.4349 3.00193 19.7219C2.8965 19.5616 2.80677 19.4117 2.72526 19.2705L9.46081 17.2852C9.57843 17.2878 9.68949 17.3003 9.80909 17.3003C15.3867 17.3003 18.4856 17.3003 18.4856 17.3003C18.4879 17.3003 19.2604 17.3003 20.7321 17.3003C22.2041 17.3003 24.3734 17.3003 27.1623 17.3003C27.282 17.3003 27.393 17.2878 27.5106 17.2852L34.2451 19.2705C34.0362 19.6339 33.7517 20.0735 33.3836 20.5066C32.9683 20.9975 32.457 21.4719 31.8642 21.8142C31.2696 22.1573 30.6025 22.3748 29.8152 22.3761C28.9938 22.3754 28.0205 22.1356 26.8554 21.4594L26.0432 22.8552C27.4022 23.6472 28.6698 23.9922 29.8152 23.9915C30.9284 23.9922 31.9069 23.6648 32.7119 23.1897C33.9211 22.4747 34.7622 21.4495 35.3176 20.6104C35.8708 19.7699 36.1377 19.1042 36.1522 19.0693L36.4808 18.2452L31.0717 16.651C32.4951 16.1417 33.6727 15.369 34.5744 14.422ZM20.7321 15.6851C19.2603 15.6851 18.4879 15.6851 18.4856 15.6851C18.4856 15.6851 15.3867 15.6851 9.80909 15.6851C6.89362 15.6798 4.88863 14.6836 3.56481 13.3062C2.24328 11.9268 1.61337 10.1196 1.61504 8.49511C1.61504 7.85171 1.71331 7.24061 1.8969 6.70173C2.58798 4.68097 3.80957 3.4264 5.01546 2.64839C5.50673 2.33233 5.99236 2.10288 6.43199 1.93994C6.27529 2.17266 6.12644 2.4092 5.99503 2.65296C5.55968 3.46388 5.27241 4.34121 5.27119 5.25131C5.26822 6.0498 5.5081 6.86993 6.03213 7.58623C6.82103 8.66597 8.17021 9.49722 10.1749 10.0749C12.1858 10.6518 14.8841 10.9811 18.4857 10.9824C23.2878 10.9785 26.4842 10.4015 28.5858 9.41244C29.6352 8.91629 30.4167 8.30512 30.939 7.58623C31.4634 6.86925 31.7034 6.0498 31.7 5.2507C31.6988 4.34114 31.4116 3.46388 30.9765 2.65289C30.8463 2.41171 30.6998 2.17777 30.5447 1.94779C31.2538 2.2106 32.0799 2.64436 32.8547 3.32516C33.7399 4.10392 34.556 5.18427 35.0746 6.70165C35.2578 7.24054 35.3564 7.85163 35.3564 8.49503C35.3578 10.1194 34.7282 11.9273 33.4066 13.3061C32.0825 14.6842 30.0781 15.6797 27.1623 15.685C24.3734 15.6851 22.204 15.6851 20.7321 15.6851Z" fill="white"/>
<path d="M25.5961 28.0252C24.7956 29.5984 24.1218 31.3076 24.1126 32.9269C24.1119 33.7457 23.9457 34.4055 23.6677 34.9516C23.2497 35.7678 22.5662 36.3612 21.6634 36.7732C20.7634 37.1833 19.6517 37.3884 18.4853 37.3877C16.9278 37.3903 15.4772 37.0197 14.4796 36.2994C13.9779 35.9386 13.5826 35.4976 13.3033 34.9516C13.0253 34.4056 12.8591 33.7457 12.8584 32.9269C12.8492 31.3076 12.1752 29.5984 11.3748 28.0252C10.5698 26.4579 9.61526 25.043 8.96532 24.1394L7.6543 25.0831C8.27438 25.944 9.19042 27.305 9.93788 28.7632C10.6907 30.2162 11.2522 31.7822 11.243 32.927C11.2423 33.9672 11.4609 34.8965 11.8647 35.6864C12.4696 36.8745 13.4777 37.7197 14.6402 38.2441C15.806 38.7717 17.1335 39.0017 18.4852 39.0031C20.2852 39.0005 22.052 38.5963 23.432 37.6119C24.1196 37.1203 24.7035 36.4763 25.1061 35.6864C25.5099 34.8965 25.7281 33.9672 25.7274 32.927C25.7188 31.7822 26.28 30.2162 27.0325 28.7632C27.7804 27.305 28.6964 25.944 29.3161 25.0831L28.0057 24.1394C27.356 25.0429 26.4012 26.4578 25.5961 28.0252Z" fill="white"/>
<path d="M14.4266 25.0713C14.4266 24.4922 13.9574 24.606 13.3781 24.606C12.7991 24.606 12.3296 24.4922 12.3296 25.0713C12.3296 25.6502 12.7991 26.1194 13.3781 26.1194C13.9575 26.1194 14.4266 25.6501 14.4266 25.0713Z" fill="white"/>
<path d="M15.6814 35.0774C16.1893 35.0774 16.6011 34.6657 16.6011 34.1577C16.6011 33.6498 16.1893 33.238 15.6814 33.238C15.1735 33.238 14.7617 33.6498 14.7617 34.1577C14.7617 34.6657 15.1735 35.0774 15.6814 35.0774Z" fill="white"/>
<path d="M21.5134 35.0774C22.0214 35.0774 22.4331 34.6657 22.4331 34.1577C22.4331 33.6498 22.0214 33.238 21.5134 33.238C21.0055 33.238 20.5938 33.6498 20.5938 34.1577C20.5938 34.6657 21.0055 35.0774 21.5134 35.0774Z" fill="white"/>
<path d="M23.8166 26.1194C24.3959 26.1194 24.8654 25.6501 24.8654 25.0713C24.8654 24.4922 24.3959 24.606 23.8166 24.606C23.2373 24.606 22.7681 24.4922 22.7681 25.0713C22.7681 25.6501 23.2373 26.1194 23.8166 26.1194Z" fill="white"/>
</svg>
