<svg width="52" height="40" viewBox="0 0 52 40" fill="none" xmlns="http://www.w3.org/2000/svg">
<path d="M21.0089 34.6734C30.5934 39.4362 43.3479 36.4628 47.711 26.881C50.799 20.0998 41.1256 14.6976 36.1878 15.928C32.4612 16.8565 30.2433 21.9254 27.8393 20.0435C25.9907 12.9135 22.7128 3.645 10.0703 1.20397C5.94764 0.408126 -0.0230946 1.86148 3.65097 6.9235C6.41752 10.734 10.4939 12.5873 14.6128 14.5542C15.8535 15.1472 16.828 16.5804 18.1568 16.9581C18.4729 17.0477 19.1603 16.8147 19.1227 17.1493C19.0407 17.8665 5.91012 10.9775 4.78201 15.707C3.96728 19.1224 13.4374 21.0776 15.4434 21.4736C15.5694 21.4983 16.4209 21.5552 16.4082 21.6644C16.3417 22.2511 8.85974 20.9083 7.59995 23.6751C5.9152 27.3735 12.215 27.6911 14.1547 27.4808C15.7757 27.3045 17.4198 27.2584 18.9985 26.955C19.0507 26.9452 21.59 26.6653 16.7206 27.6248C12.4086 28.4745 1.33416 30.6383 1.03839 32.3938C0.742631 34.1494 2.2267 34.6449 3.05292 36.2281C3.87917 37.8112 4.46843 38.1272 5.3318 38.9416C6.19498 39.7557 11.5476 31.7209 17.2717 33.6863M46.8455 19.8242C51.6729 21.7852 52.5449 19.7095 48.127 22.5057M40.7065 21.8415C40.6643 21.7217 40.6217 21.6014 40.5792 21.4812" stroke="white" stroke-width="2" stroke-linecap="round" stroke-linejoin="round"/>
</svg>
