<svg width="15" height="16" viewBox="0 0 15 16" fill="none" xmlns="http://www.w3.org/2000/svg">
<path d="M3.834 0.0203753C3.606 0.0803757 3.417 0.194376 3.267 0.362375C3.117 0.530375 3.024 0.728375 2.988 0.956376L2.97 1.11838H2.304C1.932 1.11838 1.662 1.13338 1.494 1.16338C1.326 1.19338 1.152 1.25638 0.972 1.35238C0.768 1.46038 0.585 1.60738 0.423 1.79338C0.261 1.97938 0.144 2.18038 0.072 2.39638C0.048 2.48038 0.03 2.61838 0.018 2.81038C0.006 3.05038 0 3.58438 0 4.41238V12.4584C0 13.2744 0.006 13.8084 0.018 14.0604C0.03 14.2524 0.048 14.3844 0.072 14.4564C0.144 14.6724 0.261 14.8764 0.423 15.0684C0.585 15.2604 0.768 15.4104 0.972 15.5184L1.044 15.5544C1.152 15.6144 1.254 15.6504 1.35 15.6624C1.494 15.6984 1.752 15.7194 2.124 15.7254C2.496 15.7314 3.108 15.7344 3.96 15.7344H13.464L13.698 15.6444C13.974 15.5484 14.217 15.3924 14.427 15.1764C14.637 14.9604 14.784 14.7204 14.868 14.4564C14.892 14.3844 14.91 14.2524 14.922 14.0604C14.934 13.8084 14.94 13.2744 14.94 12.4584V4.41238C14.94 3.58438 14.934 3.05038 14.922 2.81038C14.91 2.61838 14.892 2.48038 14.868 2.39638C14.784 2.13238 14.637 1.89238 14.427 1.67638C14.217 1.46038 13.974 1.30438 13.698 1.20838C13.578 1.18438 13.47 1.16638 13.374 1.15438C13.254 1.14238 13.038 1.13038 12.726 1.11838H11.97L11.952 0.956376C11.928 0.848375 11.883 0.722376 11.817 0.578376C11.751 0.434376 11.688 0.338376 11.628 0.290376C11.568 0.242375 11.466 0.182376 11.322 0.110375C11.25 0.062376 11.19 0.0353756 11.142 0.029376C11.094 0.0233755 10.998 0.0203753 10.854 0.0203753C10.71 0.0203753 10.611 0.0233755 10.557 0.029376C10.503 0.0353756 10.44 0.0563755 10.368 0.0923758C10.2 0.176375 10.059 0.296375 9.945 0.452375C9.831 0.608376 9.762 0.776376 9.738 0.956376L9.72 1.11838H5.22L5.202 0.956376C5.142 0.584375 4.95 0.308375 4.626 0.128376C4.506 0.0683756 4.371 0.029376 4.221 0.0113754C4.071 -0.00662422 3.942 -0.00362396 3.834 0.0203753ZM4.248 0.794375C4.344 0.830376 4.407 0.896376 4.437 0.992375C4.467 1.08838 4.482 1.25038 4.482 1.47838C4.482 1.74238 4.464 1.92238 4.428 2.01838C4.404 2.07838 4.359 2.12938 4.293 2.17138C4.227 2.21338 4.161 2.23438 4.095 2.23438C4.029 2.23438 3.963 2.21338 3.897 2.17138C3.831 2.12938 3.786 2.07838 3.762 2.01838C3.726 1.92238 3.708 1.74238 3.708 1.47838C3.708 1.25038 3.723 1.08838 3.753 0.992375C3.783 0.896376 3.837 0.830376 3.915 0.794375C3.993 0.758375 4.05 0.740376 4.086 0.740376C4.122 0.740376 4.176 0.758375 4.248 0.794375ZM10.998 0.794375C11.094 0.830376 11.157 0.896376 11.187 0.992375C11.217 1.08838 11.232 1.25038 11.232 1.47838C11.232 1.74238 11.214 1.92238 11.178 2.01838C11.154 2.07838 11.109 2.12938 11.043 2.17138C10.977 2.21338 10.911 2.23438 10.845 2.23438C10.779 2.23438 10.713 2.21338 10.647 2.17138C10.581 2.12938 10.536 2.07838 10.512 2.01838C10.476 1.92238 10.458 1.74238 10.458 1.47838C10.458 1.25038 10.473 1.08838 10.503 0.992375C10.533 0.896376 10.587 0.830376 10.665 0.794375C10.743 0.758375 10.8 0.740376 10.836 0.740376C10.872 0.740376 10.926 0.758375 10.998 0.794375ZM2.988 2.01838C3.012 2.19838 3.078 2.36638 3.186 2.52238C3.294 2.67838 3.438 2.79838 3.618 2.88238C3.678 2.91838 3.735 2.93938 3.789 2.94538C3.843 2.95138 3.945 2.95438 4.095 2.95438C4.245 2.95438 4.347 2.95138 4.401 2.94538C4.455 2.93938 4.518 2.91838 4.59 2.88238C4.758 2.78638 4.899 2.66338 5.013 2.51338C5.127 2.36338 5.19 2.19838 5.202 2.01838L5.238 1.85638H9.702L9.738 2.01838C9.762 2.19838 9.828 2.36638 9.936 2.52238C10.044 2.67838 10.188 2.79838 10.368 2.88238C10.476 2.93038 10.635 2.95438 10.845 2.95438C11.055 2.95438 11.22 2.93038 11.34 2.88238C11.508 2.78638 11.649 2.66338 11.763 2.51338C11.877 2.36338 11.94 2.19838 11.952 2.01838L11.988 1.85638H12.654C13.098 1.86838 13.377 1.89838 13.491 1.94638C13.605 1.99438 13.725 2.07538 13.851 2.18938C13.977 2.30338 14.064 2.40838 14.112 2.50438C14.16 2.60038 14.187 2.69638 14.193 2.79238C14.199 2.88838 14.208 3.14638 14.22 3.56638V4.48438H0.72V3.56638C0.732 3.15838 0.741 2.90338 0.747 2.80138C0.753 2.69938 0.78 2.61238 0.828 2.54038C0.9 2.36038 1.05 2.18638 1.278 2.01838C1.374 1.95838 1.5 1.91638 1.656 1.89238C1.812 1.86838 2.046 1.85638 2.358 1.85638H2.952L2.988 2.01838ZM14.22 9.68638L14.202 14.1504L14.112 14.3304C14.064 14.4504 13.977 14.5674 13.851 14.6814C13.725 14.7954 13.608 14.8704 13.5 14.9064C13.392 14.9424 13.056 14.9664 12.492 14.9784C11.76 14.9904 10.089 14.9964 7.479 14.9964C4.869 14.9964 3.192 14.9904 2.448 14.9784C1.884 14.9664 1.548 14.9424 1.44 14.9064C1.332 14.8704 1.215 14.7954 1.089 14.6814C0.963 14.5674 0.876 14.4504 0.828 14.3304L0.738 14.1504L0.72 9.68638V5.22238H14.22V9.68638ZM2.682 6.80638C2.514 6.86637 2.388 6.98638 2.304 7.16638C2.268 7.22638 2.247 7.30138 2.241 7.39138C2.235 7.48138 2.232 7.71838 2.232 8.10238L2.25 8.87638L2.358 9.03838C2.418 9.12238 2.508 9.20038 2.628 9.27238C2.7 9.32038 2.775 9.34738 2.853 9.35338C2.931 9.35938 3.159 9.36238 3.537 9.36238C3.915 9.36238 4.14 9.35938 4.212 9.35338C4.284 9.34738 4.356 9.32338 4.428 9.28138C4.5 9.23938 4.596 9.15838 4.716 9.03838L4.824 8.87638V8.13838C4.836 7.73038 4.833 7.46338 4.815 7.33738C4.797 7.21138 4.74 7.09438 4.644 6.98638C4.548 6.87838 4.437 6.80938 4.311 6.77938C4.185 6.74938 3.924 6.74038 3.528 6.75238H2.934C2.814 6.76438 2.73 6.78238 2.682 6.80638ZM4.104 8.04838V8.60638H2.97V7.47237H4.104V8.04838ZM6.624 6.80638C6.468 6.85438 6.336 6.97438 6.228 7.16638C6.204 7.22638 6.189 7.30138 6.183 7.39138C6.177 7.48138 6.174 7.71838 6.174 8.10238L6.192 8.87638L6.3 9.03838C6.348 9.11038 6.432 9.18838 6.552 9.27238C6.636 9.32038 6.717 9.34738 6.795 9.35338C6.873 9.35938 7.098 9.36238 7.47 9.36238C7.842 9.36238 8.067 9.35938 8.145 9.35338C8.223 9.34738 8.307 9.31738 8.397 9.26338C8.487 9.20938 8.568 9.13438 8.64 9.03838L8.748 8.87638L8.766 8.13838C8.778 7.73038 8.775 7.46338 8.757 7.33738C8.739 7.21138 8.682 7.09438 8.586 6.98638C8.49 6.87838 8.379 6.80938 8.253 6.77938C8.127 6.74938 7.866 6.74038 7.47 6.75238H6.876C6.744 6.76438 6.66 6.78238 6.624 6.80638ZM8.028 8.04838V8.60638H6.912V7.47237H8.028V8.04838ZM10.566 6.80638C10.41 6.85438 10.278 6.97438 10.17 7.16638C10.146 7.23838 10.128 7.31638 10.116 7.40038C10.104 7.52038 10.104 7.75438 10.116 8.10238L10.134 8.87638L10.224 9.03838C10.344 9.15838 10.44 9.23938 10.512 9.28138C10.584 9.32338 10.659 9.34738 10.737 9.35338C10.815 9.35938 11.04 9.36238 11.412 9.36238C11.784 9.36238 12.009 9.35938 12.087 9.35338C12.165 9.34738 12.246 9.32038 12.33 9.27238C12.45 9.18838 12.534 9.11038 12.582 9.03838L12.69 8.87638L12.708 8.13838C12.708 7.73038 12.699 7.46338 12.681 7.33738C12.663 7.21138 12.612 7.10038 12.528 7.00438C12.42 6.88438 12.306 6.80938 12.186 6.77938C12.066 6.74938 11.808 6.74038 11.412 6.75238H10.8C10.692 6.76438 10.614 6.78238 10.566 6.80638ZM11.97 8.04838V8.60638H10.854V7.47237H11.97V8.04838ZM2.79 10.8924C2.55 10.9644 2.382 11.1084 2.286 11.3244C2.25 11.4324 2.232 11.7204 2.232 12.1884C2.232 12.5964 2.244 12.8574 2.268 12.9714C2.292 13.0854 2.355 13.1874 2.457 13.2774C2.559 13.3674 2.67 13.4244 2.79 13.4484C2.91 13.4724 3.165 13.4844 3.555 13.4844C3.945 13.4844 4.2 13.4724 4.32 13.4484C4.44 13.4244 4.548 13.3584 4.644 13.2504C4.74 13.1424 4.797 13.0254 4.815 12.8994C4.833 12.7734 4.836 12.5064 4.824 12.0984V11.3604L4.716 11.1984C4.644 11.1024 4.554 11.0244 4.446 10.9644C4.374 10.9164 4.299 10.8894 4.221 10.8834C4.143 10.8774 3.93 10.8744 3.582 10.8744C3.402 10.8624 3.234 10.8594 3.078 10.8654C2.922 10.8714 2.826 10.8804 2.79 10.8924ZM4.104 12.1884V12.7464H2.97V11.6304H4.104V12.1884ZM6.732 10.8924C6.492 10.9644 6.324 11.1084 6.228 11.3244C6.204 11.3724 6.186 11.4564 6.174 11.5764V12.1884C6.174 12.5964 6.186 12.8574 6.21 12.9714C6.234 13.0854 6.297 13.1904 6.399 13.2864C6.501 13.3824 6.609 13.4394 6.723 13.4574C6.837 13.4754 7.092 13.4844 7.488 13.4844C7.884 13.4844 8.142 13.4724 8.262 13.4484C8.382 13.4244 8.49 13.3584 8.586 13.2504C8.682 13.1424 8.739 13.0254 8.757 12.8994C8.775 12.7734 8.778 12.5064 8.766 12.0984L8.748 11.3604L8.64 11.1984C8.592 11.1144 8.508 11.0364 8.388 10.9644C8.304 10.9164 8.226 10.8894 8.154 10.8834C8.082 10.8774 7.872 10.8744 7.524 10.8744C7.344 10.8624 7.176 10.8594 7.02 10.8654C6.864 10.8714 6.768 10.8804 6.732 10.8924ZM8.028 12.1884V12.7464H6.912V11.6304H8.028V12.1884ZM10.674 10.8924C10.434 10.9644 10.26 11.1084 10.152 11.3244C10.14 11.3724 10.128 11.4564 10.116 11.5764V12.1884C10.116 12.5964 10.128 12.8574 10.152 12.9714C10.176 13.0854 10.236 13.1874 10.332 13.2774C10.428 13.3674 10.536 13.4244 10.656 13.4484C10.776 13.4724 11.034 13.4844 11.43 13.4844C11.826 13.4844 12.081 13.4724 12.195 13.4484C12.309 13.4244 12.42 13.3524 12.528 13.2324C12.612 13.1364 12.663 13.0254 12.681 12.8994C12.699 12.7734 12.708 12.5064 12.708 12.0984L12.69 11.3604L12.582 11.1984C12.546 11.1384 12.468 11.0664 12.348 10.9824L12.33 10.9644C12.246 10.9164 12.165 10.8894 12.087 10.8834C12.009 10.8774 11.802 10.8744 11.466 10.8744C11.286 10.8624 11.118 10.8594 10.962 10.8654C10.806 10.8714 10.71 10.8804 10.674 10.8924ZM11.97 12.1884V12.7464H10.854V11.6304H11.97V12.1884Z" fill="#0E99A2"/>
</svg>
