<svg width="635" height="561" viewBox="0 0 635 561" fill="none" xmlns="http://www.w3.org/2000/svg">
<path d="M436.072 524.811C434.168 528.044 435.242 532.234 438.495 534.136C439.935 534.99 441.155 535.795 442.156 536.576C439.733 537.607 438.037 540.022 438.037 542.828C438.037 546.597 441.082 549.634 444.848 549.634H454.203C457.737 549.634 460.684 546.932 460.989 543.419C461.166 541.541 461.191 531.667 445.397 522.383C442.156 520.493 437.976 521.566 436.072 524.811ZM420.986 448.58C424.745 448.58 427.809 451.641 427.809 455.398V506.501C427.809 510.271 424.745 513.302 420.986 513.302C417.214 513.302 414.175 510.259 414.175 506.501V501.037C411.575 500.915 409.153 499.323 408.134 496.755C406.754 493.248 408.463 489.302 411.966 487.912C412.094 487.851 412.204 487.814 412.308 487.771C412.668 487.546 413.052 487.308 413.473 487.106C413.711 486.984 413.937 486.899 414.181 486.802L414.169 455.404C414.169 451.635 417.227 448.58 420.986 448.58ZM457.462 525.256C445.837 517.285 441.705 502.226 441.705 490.785C441.705 479.947 441.681 470.183 441.668 461.356C441.522 377.958 441.51 376.366 459.183 357.453C460.819 355.715 462.662 353.739 464.67 351.482C509.122 301.794 497.161 263.382 496.6 261.692C495.392 258.143 497.289 254.288 500.823 253.068C504.393 251.836 508.274 253.721 509.501 257.283C510.154 259.179 525.008 304.482 474.832 360.563C472.733 362.929 470.829 364.96 469.15 366.753C461.553 374.902 458.709 377.933 457.073 388.27C455.2 400.139 455.236 420.601 455.31 461.324C455.328 470.162 455.346 479.938 455.346 490.776C455.346 498.381 457.927 509.042 465.184 514.007C480.355 524.4 481.424 541.178 481.466 541.885C481.667 545.636 478.787 548.862 475.021 549.064H474.655C471.055 549.064 468.052 546.258 467.851 542.611C467.845 542.532 467.009 531.797 457.464 525.253L457.462 525.256ZM470.077 453.421C470.034 425.928 469.997 407.916 470.541 395.114C469.595 395.584 468.575 395.84 467.538 395.84C465.762 395.84 463.986 395.169 462.65 393.797C460.025 391.095 460.087 386.777 462.79 384.148C518.569 329.934 545.684 278.751 545.684 227.701C545.684 167.937 533.887 116.199 533.771 115.687C533.326 113.747 533.735 111.704 534.925 110.1C536.103 108.502 537.933 107.496 539.917 107.356C551.17 106.545 582.386 103.8 591.498 100.854C599.913 98.1278 606.663 93.4437 611.587 86.9117C613.845 83.9048 618.129 83.301 621.126 85.576C624.134 87.8326 624.739 92.1019 622.474 95.1088C615.835 103.922 606.82 110.222 595.695 113.814C586.248 116.875 561.606 119.26 548.686 120.334C552.036 137.179 559.323 179.371 559.323 227.701C559.323 278.427 535.021 328.689 485.181 380.921C485.242 381.464 485.248 381.995 485.181 382.562C483.625 394.766 483.661 415.581 483.728 453.396C483.747 462.215 483.765 471.998 483.765 482.824C483.765 490.448 486.334 501.084 493.603 506.068C508.774 516.46 509.843 533.238 509.885 533.958C510.086 537.709 507.206 540.917 503.44 541.106C503.318 541.124 503.196 541.124 503.074 541.124C499.48 541.124 496.471 538.319 496.282 534.672C496.276 534.568 495.433 523.834 485.895 517.314C474.269 509.337 470.138 494.266 470.138 482.824C470.119 471.998 470.089 462.233 470.077 453.427V453.421ZM525.532 31.8103C529.291 31.8103 532.343 34.8598 532.343 38.6169V88.0071C532.343 105.547 518.068 119.801 500.53 119.801C482.985 119.801 468.717 105.547 468.717 88.0071V38.6169C468.717 34.86 471.78 31.8103 475.539 31.8103C479.299 31.8103 482.35 34.8598 482.35 38.6169V88.0071C482.35 98.0339 490.509 106.176 500.531 106.176C510.552 106.176 518.711 98.0281 518.711 88.0071V38.6169C518.711 34.8722 521.762 31.8103 525.534 31.8103H525.532ZM619.398 70.6801C620.637 65.8374 621.119 61.3364 621.296 57.9392H576.93C574.525 57.9392 572.291 56.6706 571.071 54.6092C570.827 54.2005 546.106 13.6425 499.657 13.6425C476.729 13.6425 446.258 22.3764 446.258 97.8086C446.258 137.47 432.136 166.917 403.087 187.867C374.264 208.652 333.088 245.448 300.573 302.681C299.304 304.901 297.003 306.139 294.629 306.139C293.482 306.139 292.329 305.859 291.279 305.236C287.99 303.382 286.842 299.223 288.698 295.954C322.428 236.58 365.189 198.388 395.104 176.815C420.351 158.61 432.624 132.762 432.624 97.8029C432.624 67.8688 437.024 45.5336 446.081 29.5251C457.169 9.94112 475.197 0 499.657 0C545.921 0 572.999 33.4051 580.591 44.2846L628.052 44.2968C631.567 44.2968 634.515 46.9804 634.839 50.4689C634.881 50.9263 635.827 61.4777 632.599 74.0656C631.665 77.7128 627.949 79.9024 624.299 78.9753C620.656 78.0299 618.452 74.3151 619.398 70.6801ZM552.494 45.4425C552.494 48.5774 549.949 51.1146 546.819 51.1146C543.682 51.1146 541.137 48.5774 541.137 45.4425C541.137 42.3076 543.688 39.7704 546.819 39.7704C549.949 39.7643 552.494 42.3076 552.494 45.4425ZM377.064 520.124H376.942C373.225 520.124 370.192 517.343 370.131 513.628C369.753 492.191 371.529 462.83 382.166 443.8C397.453 416.452 401.512 386.859 401.554 386.567C402.042 382.835 405.472 380.212 409.194 380.694C412.929 381.176 415.559 384.573 415.071 388.299C414.949 389.233 412.746 405.353 405.435 425.333C405.777 424.79 406.106 424.266 406.442 423.723C406.906 422.772 407.369 421.832 407.852 420.997C408.138 420.478 408.48 420.045 408.877 419.643C426.165 389.165 425.575 361.965 425.562 361.592L425.556 320.18L425.873 319.186C430.603 304.207 444.883 304.75 453.415 305.073C455.874 305.189 458.944 305.28 460.043 304.933C462.209 304.066 467.555 298.236 472.627 291.368C464.791 284.141 460.97 277.023 460.97 269.753C460.97 261.538 459.14 254.39 455.521 248.486C453.543 245.29 454.55 241.094 457.76 239.118C460.97 237.154 465.169 238.154 467.134 241.362C472.096 249.419 474.604 258.982 474.604 269.754C474.604 274.901 480.798 280.787 485.992 284.812L491.002 288.71L487.468 293.991C483.27 300.267 472.602 315.166 464.328 317.863C460.874 319.009 456.998 318.851 452.897 318.704C443.548 318.345 440.612 319.052 439.191 322.419V361.263C439.288 364.209 439.679 396.278 418.167 430.97C409.867 449.096 403.825 488.026 404.137 506.129C404.204 509.898 401.207 512.203 397.448 513.332H397.326C393.616 513.332 390.576 510.105 390.515 506.391C390.308 494.943 392.328 476.366 395.886 458.738C393.597 461.013 391.181 463.246 388.636 465.454C388.52 465.569 388.379 465.637 388.257 465.734C385.005 478.274 383.448 494.558 383.778 513.429C383.821 517.161 380.824 520.125 377.065 520.125L377.064 520.124ZM451.103 279.223C448.179 279.223 445.805 276.845 445.805 273.917C445.805 270.99 448.173 268.623 451.103 268.623C454.032 268.623 456.4 270.99 456.4 273.917C456.4 276.845 454.038 279.223 451.103 279.223ZM436.584 188.409C443.108 187.647 450.364 191.885 451.615 201.485L451.676 201.931V239.629C451.676 243.386 448.613 246.448 444.853 246.448C441.094 246.448 438.043 243.386 438.043 239.629V202.999C437.976 202.73 437.841 202.334 437.695 202.029C436.236 202.328 431.934 203.608 426.734 208.89C419.942 215.794 414.279 226.894 410.379 240.984C409.372 244.613 405.631 246.735 401.994 245.729C398.362 244.722 396.239 240.971 397.246 237.349C409.305 193.771 432.122 188.934 436.584 188.409ZM0.000488281 544.069C0.000488281 553.248 7.53723 561 16.4842 561H151.52C167.6 561 178.683 554.566 185.987 546.448C186.811 548.851 188.093 551.37 190.125 553.651C193.091 556.999 198.723 561 208.708 561H334.076C337.634 561 340.594 558.274 340.869 554.73C340.905 554.273 341.009 552.346 340.564 549.638H351.079C352.61 551.315 353.953 553.23 354.813 556.115C355.668 559.018 358.329 561 361.343 561H395.433C399.003 561 401.956 558.274 402.237 554.718C402.274 554.255 402.384 552.297 402.079 549.638H424.982C428.54 549.638 431.5 546.911 431.768 543.362C431.866 542.191 432.476 531.7 425.696 524.29C422.968 521.32 417.976 517.752 409.621 517.636C405.862 517.63 402.762 520.618 402.719 524.375C402.683 528.145 405.704 531.231 409.463 531.273C413.625 531.316 415.114 532.914 415.596 533.451C416.28 534.176 416.774 535.067 417.152 536.012H396.452C396.348 535.884 396.256 535.768 396.147 535.634C393.419 532.664 388.427 529.096 380.066 528.998C376.294 528.974 373.207 531.962 373.176 535.726C373.133 539.495 376.148 542.581 379.919 542.624C384.106 542.666 385.601 544.301 386.095 544.844C386.761 545.551 387.249 546.435 387.615 547.363H365.963C363.766 542.965 360.934 540.123 358.878 538.092C358.377 537.592 357.749 536.964 357.376 536.525L357.37 502.162V449.723C357.37 445.954 354.307 442.904 350.547 442.904C346.788 442.904 343.737 445.966 343.737 449.723V481.432C341.027 483.61 336.542 486.037 332.184 488.501C329.456 490.05 326.826 491.563 324.391 493.088C319.619 461.726 300.938 445.498 284.907 437.343C265.215 427.359 245.715 426.993 244.905 426.993H244.886C241.115 426.993 238.082 430.225 238.063 433.976C238.063 437.745 241.09 440.905 244.85 440.923C247.578 440.929 309.777 442.21 311.869 505.652C311.54 506.658 311.344 507.689 311.344 508.744L311.912 508.756V508.976V513.276C311.686 516.063 310.069 524.663 299.224 524.663H244.88C241.108 524.663 238.057 527.706 238.057 531.463C238.057 535.22 241.12 538.27 244.88 538.27H299.224C299.89 538.27 300.518 538.263 301.141 538.209C301.403 538.263 301.665 538.27 301.928 538.27C312.071 538.349 319.596 540.654 323.678 544.972C324.41 545.759 325.009 546.564 325.491 547.357H208.709C204.773 547.357 201.947 546.43 200.342 544.613C197.852 541.783 198.249 537.105 198.249 537.062C198.273 536.781 198.292 536.513 198.292 536.22V481.487C198.292 477.718 195.247 474.668 191.487 474.668C187.728 474.668 184.664 477.73 184.664 481.487V518.538C184.439 519.081 184.262 519.63 184.164 520.234C183.999 521.307 179.526 547.356 151.526 547.356H16.4905C15.0563 547.356 13.6466 545.715 13.6466 544.05C13.6466 541.848 15.5995 539.616 16.4905 539.616C20.677 539.61 119.438 539.287 150.945 533.054C167.752 529.717 170.272 515.19 171.626 507.377C171.81 506.292 171.993 505.279 172.194 504.316C173.207 499.467 174.013 490.385 174.739 481.506L174.965 478.883C179.67 423.718 195.806 384.806 224.244 359.946C248.68 338.599 278.082 330.939 304.013 324.169C307.608 323.236 311.117 322.315 314.51 321.4C334.912 315.826 356.784 286.337 362.795 272.09C371.717 250.902 381.072 238.021 391.416 232.678C394.754 230.946 396.066 226.841 394.339 223.499C392.618 220.151 388.499 218.839 385.154 220.572C371.667 227.53 360.573 242.223 350.217 266.795C344.438 280.506 324.531 304.536 310.916 308.251C307.565 309.159 304.123 310.05 300.559 310.977C274.513 317.759 242.101 326.212 215.274 349.681C184.015 376.986 166.385 418.863 161.356 477.699L161.148 480.377C160.666 486.226 159.775 497.094 158.829 501.491C158.603 502.601 158.39 503.79 158.182 505.04C156.614 513.963 155.137 518.324 148.271 519.678C118.044 525.667 17.4477 525.991 16.4525 525.991C6.77971 526.015 0.000488281 535.53 0.000488281 544.069ZM343.737 497.661V501.942C343.511 504.73 341.894 513.311 331.049 513.311H325.563V508.993V508.938C327.986 506.535 334.674 502.802 338.891 500.424C340.502 499.515 342.138 498.588 343.737 497.661ZM333.942 536.023C333.924 535.986 333.905 535.956 333.881 535.944C330.506 532.272 326.161 529.479 320.852 527.594C320.998 527.387 321.151 527.149 321.279 526.929H331.037C336.133 526.929 340.313 525.874 343.725 524.161V536.023L333.942 536.023Z" fill="white" stroke="white" stroke-width="4"/>
</svg>
