<svg width="24" height="8" viewBox="0 0 24 8" fill="none" xmlns="http://www.w3.org/2000/svg">
<g clip-path="url(#clip0_170_462)">
<path d="M11.2073 7.30958C11.1046 7.30958 11.0165 7.27289 10.9431 7.1995L5.19675 1.45311C5.12336 1.37972 5.08667 1.29166 5.08667 1.18891C5.08667 1.08617 5.12336 0.99076 5.19675 0.902693L5.81322 0.286222C5.90129 0.198155 5.9967 0.154121 6.09944 0.154121C6.20219 0.154121 6.29759 0.198155 6.38566 0.286222L11.2073 5.1079L16.051 0.286223C16.1244 0.198155 16.2125 0.154122 16.3152 0.154122C16.418 0.154122 16.5134 0.198156 16.6015 0.286223L17.2179 0.902693C17.306 0.976083 17.35 1.07149 17.35 1.18891C17.35 1.30633 17.306 1.3944 17.2179 1.45311L11.4936 7.1995C11.4202 7.27289 11.3248 7.30958 11.2073 7.30958Z" fill="white"/>
</g>
<defs>
<clipPath id="clip0_170_462">
<rect width="7.86" height="24" fill="white" transform="matrix(-4.37114e-08 1 1 4.37114e-08 3.43572e-07 0)"/>
</clipPath>
</defs>
</svg>
