<svg width="46" height="46" viewBox="0 0 46 46" fill="none" xmlns="http://www.w3.org/2000/svg">
<path d="M7.34044 11.252C7.81554 10.6641 7.53307 9.21582 7.53307 9.21582C7.53307 9.21582 6.60013 9.96619 6.17822 11.541C6.17822 11.5417 6.86679 11.8393 7.34044 11.252Z" fill="white"/>
<path d="M3.11937 16.5607C3.06978 16.946 3.3889 18.658 3.72672 17.5476C4.06309 16.4357 3.11937 16.5607 3.11937 16.5607Z" fill="white"/>
<path d="M42.537 32.9367C41.9865 32.5838 41.2368 31.9837 40.4872 31.0399C40.5403 29.8022 40.0006 29.0016 39.9215 28.8945L39.6915 28.5804L39.3142 28.492C39.1956 28.4647 39.0734 28.4496 38.9519 28.4309C38.6041 27.6189 38.3287 26.7778 38.1289 25.9174L37.9672 25.2303C38.2835 23.8983 38.2571 22.5078 37.8903 21.1887C39.3113 21.1341 40.6446 21.5057 39.9186 23.3357C38.387 27.1961 44.5625 30.4261 44.5625 30.4261C44.5625 30.4261 41.1657 25.0204 43.7388 20.9997C45.2755 18.5955 40.329 17.1896 36.9725 19.1691C36.0137 17.7273 34.592 16.8784 32.9705 16.8777C32.7807 16.8777 32.5874 16.8899 32.3948 16.9136C31.4417 17.0279 30.4994 17.1645 29.5873 17.2946C27.6711 17.5698 25.8599 17.8308 24.4123 17.8308C21.878 17.8308 21.6113 17.0027 21.4971 16.6491C21.4539 16.5169 21.4094 16.3933 21.3655 16.2632L21.9959 16.6038C21.9096 15.0708 20.6813 13.2308 20.6813 13.2308L21.9391 13.4255C21.6502 11.7846 19.4759 10.3852 19.4759 10.3852L20.5073 10.1976C19.7376 8.86794 17.5705 7.96591 17.5705 7.96591L18.9318 7.8775C18.2462 6.94097 15.7701 6.25241 15.7701 6.25241L16.8187 5.56816C14.523 4.64169 12.6953 5.10528 12.6953 5.10528L13.1732 4.07172C11.5108 3.97325 10.2033 4.72291 9.59169 5.15775C8.70403 3.59519 7.70857 2.875 7.70857 2.875C7.6446 3.26959 7.62232 3.61963 7.61585 3.94163C6.92369 3.54991 6.40547 3.42916 6.30844 3.40903L5.14047 3.17975L5.05782 4.37719C4.96438 5.72053 5.30435 6.90862 5.50919 7.48362C5.088 9.00809 3.39319 12.5307 2.45594 14.4799C1.92694 15.5796 1.64591 16.1676 1.53953 16.4486C0.98394 17.9148 2.82538 19.3926 3.97178 20.143L4.32613 20.3744L4.74085 20.2953C4.91407 20.2623 5.06357 20.2033 5.19366 20.1322C5.32878 20.2975 5.50847 20.424 5.71475 20.4944C5.85203 20.5404 5.99578 20.5656 6.14025 20.5656C6.89494 20.5656 7.38297 19.9705 7.85519 19.3955C8.17647 19.0045 8.54016 18.561 8.91391 18.3547C9.70525 17.9177 10.3636 17.4793 10.8926 17.0365C10.7396 17.477 10.5531 17.9052 10.3349 18.3173C8.791 21.1729 9.60247 24.8961 10.0869 26.5334C8.68319 27.3111 6.44716 27.876 5.58969 28.0471L4.8925 28.1865L4.75953 28.8909C3.31269 36.6117 6.16685 39.4306 7.99607 40.4239C8.98435 40.9587 9.80516 41.0406 9.89572 41.0485L10.8991 41.1341L11.027 40.1264L11.4216 37.0207L11.5769 35.7973L10.3536 35.8254C10.2982 35.8254 9.85691 35.8218 9.39691 35.6974C9.05263 35.604 8.62138 35.4272 8.51069 35.1066C8.29003 34.4705 8.49703 32.9906 8.77591 31.7846C9.18128 31.8126 9.58379 31.8277 9.97838 31.8277C10.5577 31.8277 11.1054 31.7925 11.6358 31.7407C11.5799 31.8082 11.5224 31.8743 11.4633 31.9391C10.6885 32.7599 10.7539 33.5814 10.861 33.9983C11.0845 34.863 11.8213 35.4559 12.4121 35.6407C12.7894 35.7571 15.1455 36 19.417 36.3644L19.8518 36.4011L20.1861 36.1157C20.1918 36.1107 20.94 35.4804 21.8385 35.1275C22.2151 34.9787 22.5529 34.9039 22.8418 34.9039C22.8907 34.9039 22.9396 34.9061 22.9885 34.9111L24.8083 35.0901L24.0458 33.4125C23.9466 33.194 23.0338 31.2556 21.5747 30.5174L21.0234 30.2378L20.5124 30.5871C20.4944 30.6001 20.0603 30.8969 19.5183 31.3088C19.1971 31.5546 18.7816 31.883 18.3957 32.2244L18.0765 32.1303C18.7205 31.4475 19.7131 30.5418 21.0673 29.647C21.4065 29.6233 21.7508 29.6068 22.108 29.6068C23.7216 29.6068 25.2978 29.8389 27.0113 30.1365C28.8068 33.3859 31.4007 34.0867 33.3018 34.0867C34.201 34.0867 35.0419 33.9315 35.7499 33.7331C35.0311 37.4519 36.1581 40.0617 36.9912 41.3878C37.5683 42.3035 38.1016 42.7893 38.1606 42.8418L38.4811 43.125L38.9045 43.1063C40.72 43.0251 41.1865 40.4735 41.2857 39.6937L41.3626 39.0871L40.881 38.7155C40.6616 38.5473 40.4589 38.3584 40.2758 38.1513C39.8217 37.6377 39.5351 36.9978 39.4543 36.317C39.7663 36.6253 40.0861 36.9294 40.4261 37.2147C40.9776 37.6867 41.5665 38.1131 42.187 38.4898L43.245 39.1287L43.7043 37.9752C43.7309 37.909 44.3461 36.345 44.39 34.5388L44.4101 33.7202L43.6303 33.493C43.6317 33.493 43.1789 33.35 42.537 32.9367ZM37.7883 28.3734C37.7013 28.3763 37.6122 28.3777 37.5266 28.3813C37.3714 28.3877 37.2183 28.3957 37.0652 28.3957C36.8302 28.3957 36.6023 28.3827 36.35 28.2922C36.7263 27.8863 37.0484 27.4333 37.3081 26.9445C37.4533 27.4534 37.615 27.927 37.7883 28.3734ZM4.54391 19.2532C4.54391 19.2532 2.18713 17.7107 2.52207 16.8267C2.834 15.9994 5.78303 10.2781 6.49244 7.866L6.46153 7.97094C6.77419 8.26922 7.45988 8.63506 8.04997 9.21509C8.42157 9.58094 8.83197 10.0661 9.26107 10.6634C8.86935 11.2298 7.68413 12.7686 4.75307 15.5286C4.30313 14.932 3.89488 14.5346 3.66272 14.4009L3.44135 14.8623C3.60594 14.9622 3.76838 15.0772 4.08103 15.3927C4.5281 15.8448 5.35322 17.0847 5.83119 18.4259C5.89085 18.3964 5.99219 18.3942 6.08635 18.4C5.1455 18.4575 5.00607 19.1648 4.54391 19.2532ZM8.40935 17.4239C7.33482 18.0162 6.67356 19.5047 6.14097 19.5047C6.11043 19.5043 6.08013 19.4992 6.05113 19.4896C5.78303 19.3991 6.38607 18.5847 6.29982 18.4252L6.30988 18.4266C5.99484 17.5563 5.57435 16.7279 5.05782 15.9598C7.81925 13.3652 9.06988 11.8249 9.57516 11.1234C10.1926 12.047 10.8351 13.1869 11.4432 14.5396C11.2843 15.2246 10.5915 16.2172 8.40935 17.4239ZM16.2466 32.6931L18.6745 33.4125C19.0483 33.0366 19.5514 32.6226 20.0057 32.2712C20.3708 32.6794 20.8337 33.3097 21.28 34.2154C20.6433 34.4998 20.0466 34.8666 19.5054 35.3064C19.5054 35.3064 13.179 34.7674 12.7233 34.6272C12.269 34.4856 11.321 33.6282 12.2259 32.6693C12.4451 32.4372 12.7714 32.0182 13.1358 31.5251C14.4224 31.285 15.5976 30.9364 16.7447 30.59C17.4292 30.3785 18.1184 30.1825 18.8118 30.0021C17.0494 31.469 16.2466 32.6931 16.2466 32.6931ZM24.242 28.6731C23.534 28.5942 22.8225 28.5519 22.1102 28.5466C20.9645 28.5466 19.8066 28.6594 18.6357 28.952C15.8843 29.6391 13.4176 30.7654 9.9791 30.7654C9.35019 30.7654 8.68822 30.7273 7.986 30.6425C7.986 30.6425 7.00563 33.9746 7.5181 35.4552C7.77182 36.1883 8.47619 36.5463 9.1245 36.7209L9.16403 36.7296C8.97285 37.3556 8.71122 38.3439 8.53297 39.5082C8.52003 39.5011 8.50782 39.496 8.49488 39.4896C6.82091 38.5818 4.48785 36.0547 5.7931 29.0885C5.7931 29.0885 9.61541 28.3274 11.3404 26.9768C11.3404 26.9768 9.47382 22.1246 11.2578 18.8262C11.9089 17.6202 12.7326 15.4704 11.8335 14.1076C11.8347 14.1056 11.8362 14.1037 11.8378 14.1019C11.3584 13.046 10.958 12.0527 10.337 11.1521C9.76834 10.3214 9.12243 9.54625 8.40791 8.83703C7.69994 8.13841 6.93591 7.71363 6.60816 7.40672C6.60816 7.40672 5.99507 6.05331 6.10647 4.45122C6.10647 4.45122 7.48719 4.72362 8.81472 6.33937C8.81472 6.33937 9.25316 6.22437 9.97622 6.22437C12.2647 6.22509 17.4002 7.37725 20.4951 16.9783C20.5807 17.2428 20.7086 17.4642 20.8559 17.6662C20.8488 17.6626 20.8408 17.6604 20.8337 17.6575C20.8337 17.6575 22.4839 19.4702 21.482 21.0357C20.5303 22.5235 22.2733 24.8479 25.0398 25.4128C25.052 25.9397 24.9744 27.168 24.242 28.6731ZM37.3247 31.9693C37.3247 31.9693 35.4954 33.0266 33.304 33.0266C31.3871 33.0266 29.192 32.2172 27.7028 29.1812C27.0552 29.0662 26.4062 28.9603 25.7557 28.8636C25.8541 28.7263 26.3299 27.9472 26.5714 25.5372C27.4758 25.4942 28.3633 25.2773 29.1855 24.8982C32.5299 23.3888 29.532 19.7484 30.7071 18.2074C31.3058 18.1233 31.9103 18.0406 32.5191 17.9666C32.6722 17.9486 32.8224 17.9393 32.969 17.9393C34.3016 17.94 35.3869 18.6767 36.1172 19.7786L36.115 19.78C36.4217 20.249 36.661 20.7588 36.8258 21.2944H36.8273C37.5769 23.685 37.0508 26.7497 34.6286 28.3655C35.5759 29.3085 36.3191 29.4565 37.0652 29.4565C37.4073 29.4565 37.7494 29.4256 38.1117 29.4256C38.415 29.4256 38.7334 29.4465 39.0763 29.527C39.0763 29.527 39.744 30.4355 39.2854 31.8457C38.8757 33.1114 37.3836 36.3026 39.4033 38.7442C39.1381 39.3408 38.6278 40.2464 37.8429 40.7582C36.8877 39.2035 35.8103 36.253 37.3247 31.9693ZM39.5032 34.8227C39.6247 34.0997 39.8604 33.3737 40.1084 32.6844C40.1537 32.5587 40.1867 32.458 40.2241 32.3517C40.8473 33.0158 41.4589 33.5024 41.9714 33.8316L42.0821 33.8991C41.8413 35.0994 41.5099 35.9318 41.2174 36.4924C41.18 36.4608 41.1398 36.4334 41.1024 36.4011C40.5231 35.9131 39.9991 35.374 39.5032 34.8227Z" fill="white"/>
</svg>
