<svg width="13" height="13" viewBox="0 0 13 13" fill="none" xmlns="http://www.w3.org/2000/svg">
<path d="M8.565 6.435C8.565 5.845 8.36 5.34 7.95 4.92C7.54 4.5 7.035 4.29 6.435 4.29C5.835 4.29 5.33 4.5 4.92 4.92C4.51 5.34 4.3 5.845 4.29 6.435C4.28 7.025 4.49 7.53 4.92 7.95C5.35 8.37 5.855 8.58 6.435 8.58C7.015 8.58 7.52 8.37 7.95 7.95C8.38 7.53 8.585 7.025 8.565 6.435ZM9.72 6.435C9.72 7.345 9.4 8.125 8.76 8.775C8.12 9.425 7.345 9.745 6.435 9.735C5.525 9.725 4.745 9.405 4.095 8.775C3.445 8.145 3.125 7.365 3.135 6.435C3.145 5.505 3.465 4.725 4.095 4.095C4.725 3.465 5.505 3.145 6.435 3.135C7.365 3.125 8.14 3.44499 8.76 4.095C9.38 4.745 9.7 5.525 9.72 6.435ZM10.635 3C10.635 3.21 10.56 3.39 10.41 3.54C10.26 3.69 10.075 3.765 9.855 3.765C9.635 3.765 9.455 3.69 9.315 3.54C9.175 3.39 9.1 3.21 9.09 3C9.08 2.79 9.155 2.60999 9.315 2.46C9.475 2.31 9.655 2.23499 9.855 2.23499C10.055 2.23499 10.24 2.31 10.41 2.46C10.58 2.60999 10.655 2.79 10.635 3ZM6.435 1.15499C6.395 1.15499 6.18 1.15499 5.79 1.15499H4.905C4.705 1.15499 4.435 1.165 4.095 1.185C3.755 1.205 3.47 1.23 3.24 1.26C3.01 1.29 2.81 1.345 2.64 1.425C2.36 1.535 2.115 1.69499 1.905 1.90499C1.695 2.115 1.53 2.35999 1.41 2.64C1.35 2.8 1.3 3 1.26 3.24C1.22 3.48 1.19 3.77 1.17 4.10999C1.15 4.45 1.145 4.715 1.155 4.905C1.165 5.095 1.165 5.39 1.155 5.79C1.145 6.19 1.145 6.405 1.155 6.435C1.165 6.465 1.165 6.68 1.155 7.08C1.145 7.48 1.145 7.775 1.155 7.965C1.165 8.155 1.17 8.42 1.17 8.75999C1.17 9.1 1.2 9.39 1.26 9.63L1.41 10.23C1.53 10.51 1.695 10.755 1.905 10.965C2.115 11.175 2.36 11.335 2.64 11.445C2.8 11.505 3 11.56 3.24 11.61C3.48 11.66 3.765 11.685 4.095 11.685C4.425 11.685 4.695 11.695 4.905 11.715C5.115 11.735 5.41 11.735 5.79 11.715C6.17 11.695 6.385 11.695 6.435 11.715C6.485 11.735 6.695 11.735 7.065 11.715C7.435 11.695 7.73 11.695 7.95 11.715C8.17 11.735 8.44 11.725 8.76 11.685C9.08 11.645 9.37 11.62 9.63 11.61C9.89 11.6 10.085 11.545 10.215 11.445C10.495 11.335 10.745 11.175 10.965 10.965C11.185 10.755 11.345 10.51 11.445 10.23C11.505 10.07 11.555 9.87 11.595 9.63C11.635 9.39 11.665 9.1 11.685 8.75999C11.705 8.42 11.71 8.155 11.7 7.965C11.69 7.775 11.69 7.48 11.7 7.08C11.71 6.68 11.71 6.465 11.7 6.435C11.69 6.405 11.69 6.19 11.7 5.79C11.71 5.39 11.71 5.095 11.7 4.905C11.69 4.715 11.685 4.45 11.685 4.10999C11.685 3.77 11.655 3.48 11.595 3.24L11.445 2.64C11.335 2.35999 11.175 2.115 10.965 1.90499C10.755 1.69499 10.505 1.535 10.215 1.425C10.055 1.365 9.86 1.31 9.63 1.26C9.4 1.21 9.11 1.185 8.76 1.185C8.41 1.185 8.14 1.175 7.95 1.15499C7.76 1.135 7.465 1.135 7.065 1.15499C6.665 1.175 6.455 1.175 6.435 1.15499ZM12.855 6.435C12.855 7.715 12.84 8.6 12.81 9.09C12.76 10.25 12.415 11.15 11.775 11.79C11.135 12.43 10.24 12.775 9.09 12.825C8.59 12.855 7.705 12.87 6.435 12.87C5.165 12.87 4.28 12.855 3.78 12.825C2.62 12.765 1.72 12.42 1.08 11.79C0.44 11.16 0.095 10.26 0.045 9.09C0.015 8.6 0 7.715 0 6.435C0 5.155 0.015 4.27 0.045 3.77999C0.095 2.62 0.44 1.72 1.08 1.08C1.72 0.439996 2.62 0.0949955 3.78 0.0449953C4.27 0.0149956 5.155 -4.76837e-06 6.435 -4.76837e-06C7.715 -4.76837e-06 8.6 0.0149956 9.09 0.0449953C10.25 0.104996 11.145 0.449995 11.775 1.08C12.405 1.71 12.75 2.60999 12.81 3.77999C12.84 4.27 12.855 5.155 12.855 6.435Z" fill="#0E99A2"/>
</svg>
