<svg width="11" height="11" viewBox="0 0 11 11" fill="none" xmlns="http://www.w3.org/2000/svg">
<path d="M10.7915 1.81984C10.7637 1.66939 10.6857 1.54358 10.5577 1.44242C10.4296 1.34125 10.2821 1.29067 10.115 1.29067C9.08494 1.29586 8.08686 1.46446 7.12081 1.7965C6.15475 2.12853 5.27639 2.60323 4.48573 3.2206C4.44118 2.67586 4.27971 2.16225 4.00131 1.67977C3.81756 1.35292 3.58927 1.05461 3.31644 0.78484C3.04361 0.515064 2.73458 0.2842 2.38936 0.0922441C2.25016 0.0144243 2.104 -0.0141096 1.95088 0.00664234C1.79776 0.0273943 1.66551 0.0896502 1.55415 0.19341C1.04189 0.701832 0.65213 1.27899 0.384863 1.9249C0.117597 2.5708 -0.0104679 3.24135 0.000668166 3.93654C0.0118043 4.61097 0.152397 5.25428 0.422448 5.86646C0.692498 6.47865 1.0753 7.02857 1.57086 7.51624C1.47063 7.87421 1.39825 8.21143 1.3537 8.5279C1.34814 8.59534 1.36762 8.65889 1.41217 8.71856C1.45671 8.77822 1.51796 8.81324 1.59591 8.82361H1.63767C1.70449 8.82361 1.76435 8.80286 1.81724 8.76136C1.87014 8.71985 1.89937 8.66538 1.90494 8.59794C1.95505 8.23996 2.03022 7.88978 2.13045 7.54737C2.14715 7.53181 2.1555 7.51105 2.1555 7.48511C2.40606 6.67579 2.78748 5.92094 3.29974 5.22056C3.80086 4.53575 4.40638 3.93913 5.11631 3.43071C5.82624 2.92229 6.60159 2.528 7.44236 2.24785C8.31098 1.96251 9.20465 1.81465 10.1234 1.80428C10.1512 1.80428 10.1777 1.81465 10.2027 1.83541C10.2278 1.85616 10.2431 1.8795 10.2487 1.90544C10.4491 3.12462 10.4547 4.3386 10.2654 5.5474L10.257 5.57853C10.0621 6.34635 9.70856 7.04284 9.1963 7.66799C8.68404 8.29314 8.05763 8.79248 7.31708 9.16602C6.66005 9.49805 5.96405 9.70687 5.22906 9.79247C4.49408 9.87807 3.76745 9.83786 3.04917 9.67185C3.58927 9.33463 4.05421 9.00779 4.44397 8.69132C5.62439 7.74192 6.59324 6.64725 7.35049 5.40733C7.38947 5.35026 7.39921 5.28671 7.37972 5.21667C7.36023 5.14663 7.31708 5.09346 7.25026 5.05714C7.18345 5.02082 7.11385 5.01174 7.04146 5.0299C6.96908 5.04806 6.9134 5.08827 6.87442 5.15052C6.31762 6.04804 5.64667 6.86774 4.86157 7.60963C4.07648 8.35151 3.20786 8.98963 2.25573 9.52399L2.23067 9.53177C1.64046 9.8638 1.00013 10.1543 0.309695 10.4034C0.242878 10.4293 0.194158 10.4747 0.163534 10.5395C0.132909 10.6044 0.131517 10.6705 0.159357 10.738C0.18163 10.7899 0.215038 10.8314 0.259582 10.8625C0.304127 10.8936 0.357023 10.9092 0.418272 10.9092C0.45168 10.9092 0.485088 10.9014 0.518496 10.8858C1.19223 10.642 1.8242 10.3567 2.41442 10.0298C3.07701 10.2425 3.77024 10.3489 4.49408 10.3489C5.02861 10.3489 5.55758 10.2879 6.08097 10.166C6.60437 10.0441 7.10271 9.8638 7.57599 9.62515C8.38336 9.2153 9.06545 8.67316 9.62225 7.99872C10.1791 7.32429 10.5633 6.57203 10.7748 5.74195C10.7915 5.71601 10.7999 5.69267 10.7999 5.67192C11.0115 4.3853 11.0087 3.10127 10.7915 1.81984ZM2.79026 4.97932C2.77912 4.62654 2.7652 4.36714 2.7485 4.20112C2.70395 3.71345 2.60651 3.14796 2.45618 2.50465C2.43947 2.43721 2.3991 2.38403 2.33507 2.34512C2.27104 2.30621 2.20005 2.29454 2.12209 2.31011C2.04414 2.32567 1.98568 2.36328 1.9467 2.42294C1.90772 2.4826 1.89659 2.54616 1.91329 2.6136C2.05249 3.20503 2.14576 3.75236 2.19309 4.2556C2.24041 4.75883 2.24459 5.31135 2.20561 5.91316C2.033 6.23481 1.88267 6.57462 1.7546 6.93259C1.20337 6.32041 0.838659 5.62782 0.660482 4.85481C0.482304 4.09736 0.501792 3.34251 0.718946 2.59026C0.947236 1.82244 1.35927 1.14281 1.95505 0.55138C1.97176 0.530628 1.99403 0.520252 2.02187 0.520252C2.04971 0.520252 2.07755 0.52544 2.10539 0.535816C2.70117 0.867847 3.16332 1.31272 3.49183 1.87042C3.82035 2.42813 3.97347 3.02864 3.9512 3.67195C3.51689 4.07142 3.12991 4.50721 2.79026 4.97932Z" fill="#0E99A2"/>
</svg>
