<svg width="35" height="29" viewBox="0 0 35 29" fill="none" xmlns="http://www.w3.org/2000/svg">
<path d="M4.14251 26.7212H1.49356C1.08025 26.7212 0.727992 26.571 0.436795 26.2704C0.145599 25.9698 0 25.6128 0 25.1995V13.7865C0 13.3732 0.145599 13.0209 0.436795 12.7297C0.727992 12.4385 1.08025 12.2929 1.49356 12.2929H4.14251C4.55582 12.2929 4.91278 12.4385 5.21337 12.7297C5.51396 13.0209 5.66425 13.3732 5.66425 13.7865V25.1995C5.66425 25.6316 5.51865 25.9933 5.22746 26.2845C4.93626 26.5757 4.57461 26.7212 4.14251 26.7212ZM1.49356 13.2792C1.36205 13.2792 1.24933 13.3309 1.15539 13.4342C1.06146 13.5375 1.01449 13.655 1.01449 13.7865V25.1995C1.01449 25.331 1.06146 25.4484 1.15539 25.5518C1.24933 25.6551 1.36205 25.7068 1.49356 25.7068H4.14251C4.27402 25.7068 4.39144 25.6551 4.49477 25.5518C4.59809 25.4484 4.64976 25.331 4.64976 25.1995V13.7865C4.64976 13.655 4.59809 13.5375 4.49477 13.4342C4.39144 13.3309 4.27402 13.2792 4.14251 13.2792H1.49356ZM21.5298 21.7051H12.8784C12.7469 21.7051 12.6295 21.6535 12.5262 21.5502C12.4228 21.4468 12.3712 21.3294 12.3712 21.1979C12.3712 21.0664 12.4228 20.949 12.5262 20.8456C12.6295 20.7423 12.7469 20.6907 12.8784 20.6907H21.5298C21.7928 20.7282 22.0464 20.6907 22.2907 20.5779C22.5349 20.4652 22.7322 20.2961 22.8824 20.0707C23.0327 19.8452 23.1079 19.5963 23.1079 19.3239C23.1079 19.0515 23.0327 18.8026 22.8824 18.5771C22.7322 18.3517 22.5349 18.1826 22.2907 18.0699C22.0464 17.9572 21.7928 17.9196 21.5298 17.9572H18.4581C17.9133 17.9572 17.392 17.8491 16.8941 17.6331C16.3963 17.417 15.9736 17.1071 15.626 16.7031C15.2784 16.2992 14.8651 15.9892 14.3861 15.7732C13.907 15.5571 13.4045 15.4491 12.8784 15.4491H5.157C5.0255 15.4491 4.90808 15.3974 4.80475 15.2941C4.70142 15.1908 4.64976 15.0734 4.64976 14.9419C4.64976 14.8104 4.70142 14.6929 4.80475 14.5896C4.90808 14.4863 5.0255 14.4346 5.157 14.4346H12.8784C13.5547 14.4346 14.1982 14.5708 14.8088 14.8432C15.4193 15.1156 15.9407 15.5055 16.3728 16.0127C16.6358 16.3133 16.9505 16.5481 17.3168 16.7172C17.6832 16.8863 18.0636 16.9708 18.4581 16.9708H21.5298C22.1873 16.9708 22.7462 17.201 23.2065 17.6613C23.6668 18.1215 23.8969 18.6805 23.8969 19.338C23.8969 19.9955 23.6668 20.5544 23.2065 21.0147C22.7462 21.475 22.1873 21.7051 21.5298 21.7051ZM17.4155 28.1584C16.1567 28.1584 14.945 27.933 13.7802 27.4821L4.98792 24.2696C4.85641 24.232 4.76248 24.1474 4.70612 24.0159C4.64976 23.8844 4.64036 23.7529 4.67794 23.6214C4.71551 23.4899 4.80005 23.396 4.93156 23.3396C5.06307 23.2832 5.19458 23.2739 5.32609 23.3114L14.1465 26.5522C15.3677 27.0218 16.6311 27.2191 17.9368 27.144C19.2425 27.0688 20.4777 26.7212 21.6425 26.1013L33.8728 19.6198C33.2904 19.075 32.6141 18.7227 31.8438 18.563C31.0735 18.4033 30.3127 18.455 29.5612 18.718L23.0515 21.1134C22.9388 21.1321 22.8261 21.1134 22.7134 21.057C22.6006 21.0006 22.5208 20.9161 22.4738 20.8034C22.4269 20.6907 22.4222 20.5732 22.4597 20.4511C22.4973 20.329 22.5725 20.2398 22.6852 20.1834L29.223 17.7881C30.1624 17.4499 31.1252 17.3889 32.1115 17.6049C33.0978 17.821 33.9479 18.2859 34.6618 18.9998L34.7746 19.1126C34.9249 19.2628 35 19.4507 35 19.6762C35 19.9016 34.9249 20.0895 34.7746 20.2398C34.7182 20.2961 34.6524 20.3431 34.5773 20.3807L22.1216 27.0031C20.6562 27.7733 19.0875 28.1584 17.4155 28.1584ZM27.4195 19.338C27.4195 19.338 27.4101 19.338 27.3913 19.338C27.241 19.338 27.1189 19.2816 27.025 19.1689C26.931 19.0562 26.8934 18.9247 26.9122 18.7744C26.9498 18.4738 26.9686 18.2484 26.9686 18.0981C26.9874 17.1399 26.7901 16.2335 26.3768 15.3787C25.9635 14.5239 25.3858 13.8006 24.6437 13.2088C23.9016 12.617 23.0562 12.2225 22.1075 12.0252C21.1587 11.8279 20.2288 11.8467 19.3176 12.0816C18.4065 12.3164 17.5845 12.7391 16.8519 13.3497C16.1192 13.9602 15.5649 14.707 15.1892 15.59C15.1328 15.7967 15.0013 15.9141 14.7947 15.9423C14.588 15.9704 14.4236 15.9 14.3015 15.7309C14.1794 15.5618 14.1653 15.3834 14.2593 15.1955L14.2874 15.1673C14.7383 14.1528 15.3865 13.3027 16.2319 12.617C17.0773 11.9313 18.0307 11.4569 19.0922 11.1939C20.1537 10.9309 21.2245 10.9168 22.3048 11.1516C23.385 11.3864 24.3525 11.8373 25.2073 12.5043C26.0621 13.1712 26.7338 13.9931 27.2222 14.97C27.7107 15.947 27.9549 16.9896 27.9549 18.0981L27.9267 18.8589C27.9267 18.9904 27.8751 19.1032 27.7717 19.1971C27.6684 19.291 27.551 19.338 27.4195 19.338ZM21.0789 11.9547H21.0225C20.891 11.936 20.783 11.8749 20.6985 11.7716C20.6139 11.6682 20.5717 11.5508 20.5717 11.4193C20.8159 7.53043 21.8116 4.5621 23.5588 2.51433C24.5545 1.31196 25.7944 0.475946 27.2786 0.00627518C27.4101 -0.0125122 27.5275 0.0109711 27.6308 0.076725C27.7342 0.142479 27.8093 0.236414 27.8563 0.358528C27.9032 0.480644 27.8986 0.598063 27.8422 0.710783C27.7858 0.823505 27.7013 0.908045 27.5886 0.964407C26.2923 1.37772 25.2026 2.11041 24.3196 3.16247C22.7415 5.04116 21.821 7.81223 21.558 11.4757C21.558 11.6072 21.511 11.7199 21.4171 11.8138C21.3231 11.9078 21.2104 11.9547 21.0789 11.9547ZM18.599 8.79854C17.8663 8.79854 17.1524 8.66704 16.4573 8.40402C15.5743 8.04707 14.8088 7.52103 14.1606 6.82592C13.5125 6.1308 13.0475 5.33236 12.7657 4.43059C12.7281 4.31787 12.7281 4.20045 12.7657 4.07833C12.8033 3.95622 12.8784 3.86698 12.9911 3.81062C13.799 3.30338 14.682 3.00748 15.6401 2.92294C16.5982 2.8384 17.5235 2.96991 18.4159 3.31747C19.3082 3.66502 20.0785 4.18636 20.7267 4.88148C21.3748 5.57659 21.8398 6.38443 22.1216 7.30499C22.1592 7.41771 22.1592 7.53513 22.1216 7.65724C22.084 7.77936 22.0089 7.86859 21.8961 7.92495C20.8816 8.50735 19.7826 8.79854 18.599 8.79854ZM13.8647 4.48695C14.1841 5.35115 14.7008 6.06975 15.4147 6.64275C16.1286 7.21575 16.9317 7.5774 17.8241 7.72769C18.7165 7.87799 19.5947 7.79345 20.4589 7.47407C20.6468 7.41771 20.8347 7.34256 21.0225 7.24862C20.7783 6.60987 20.4261 6.04157 19.9658 5.54371C19.5055 5.04586 18.9607 4.65603 18.3313 4.37423C17.702 4.09243 17.0491 3.94213 16.3728 3.92334C15.6965 3.90456 15.0389 4.01728 14.4002 4.26151C14.2123 4.31787 14.0338 4.39302 13.8647 4.48695ZM26.4614 6.60048C25.6911 6.58169 24.9631 6.40791 24.2774 6.07914C23.5917 5.75037 23.014 5.28539 22.5443 4.68421C22.4691 4.59028 22.4316 4.48225 22.4316 4.36014C22.4316 4.23802 22.4691 4.13 22.5443 4.03606C23.014 3.43488 23.5917 2.96991 24.2774 2.64114C24.9631 2.31237 25.6911 2.13859 26.4614 2.1198H26.4895C27.2598 2.13859 27.9878 2.31237 28.6735 2.64114C29.3592 2.96991 29.9369 3.43488 30.4066 4.03606C30.4817 4.13 30.5193 4.23333 30.5193 4.34605C30.5193 4.45877 30.4817 4.5621 30.4066 4.65603C29.9369 5.25721 29.3592 5.72689 28.6735 6.06505C27.9878 6.40322 27.2598 6.58169 26.4895 6.60048H26.4614ZM23.6151 4.37423C23.9909 4.74997 24.423 5.04586 24.9114 5.26191C25.3999 5.47796 25.9165 5.58599 26.4614 5.58599H26.4895C27.0344 5.58599 27.551 5.47796 28.0395 5.26191C28.5279 5.04586 28.96 4.74057 29.3357 4.34605C28.96 3.95152 28.5279 3.64624 28.0395 3.43019C27.551 3.21414 27.0344 3.10611 26.4895 3.10611H26.4614C25.9165 3.1249 25.3999 3.24232 24.9114 3.45837C24.423 3.67442 23.9909 3.9797 23.6151 4.37423Z" fill="white"/>
</svg>
