<svg width="49" height="31" viewBox="0 0 49 31" fill="none" xmlns="http://www.w3.org/2000/svg">
<path fill-rule="evenodd" clip-rule="evenodd" d="M13.9777 10.0683C25.2097 4.07424 39.9942 7.00547 47 16.6154L46.4466 17.34C45.1147 19.006 43.5016 20.496 41.6583 21.7607C32.2361 28.2257 18.8528 27.6112 10.2898 20.7432C8.9169 23.7718 5.35429 25.8153 1.36774 25.5679L1 25.5385V25.0046C1 21.8048 2.6373 18.882 5.29026 16.8821C2.82397 15.2449 1.19974 12.7391 1.01719 9.92164L1 9.38985V7.69231L1.50183 7.70957C5.27179 7.91867 8.49963 9.89603 10.0233 12.7086C11.225 11.7157 12.5514 10.8295 13.9777 10.0683ZM27.7218 26.2512L28.0402 26.2379C26.2753 27.7417 24.1117 28.8839 21.6493 29.5025C19.7362 29.983 17.8106 30.1053 15.9538 29.9131C16.8605 28.3374 17.5637 26.653 18.0406 24.8979C21.127 25.916 24.4292 26.3735 27.7218 26.2512ZM30.0847 6.88001L30.3354 7.20278C25.591 6.57156 20.6068 7.15065 16.0608 9.07452C14.6716 6.56308 12.8082 4.37381 10.6135 2.58478C11.5604 2.13435 12.5745 1.76647 13.645 1.49755C19.9635 -0.0896217 26.4168 2.23142 30.0847 6.88001Z" stroke="white" stroke-width="2" stroke-linecap="round"/>
<path d="M38.4014 14.8691V14.6287" stroke="white" stroke-linecap="round" stroke-linejoin="round"/>
</svg>
