<svg width="36" height="35" viewBox="0 0 36 35" fill="none" xmlns="http://www.w3.org/2000/svg">
<path d="M34.0888 26.985L26.9838 22.26C26.5405 21.9567 26.0505 21.8517 25.5138 21.945C24.9771 22.0383 24.5455 22.295 24.2188 22.715L22.1538 25.375C22.0371 25.5383 21.868 25.6492 21.6463 25.7075C21.4246 25.7658 21.2205 25.7367 21.0338 25.62L20.5088 25.34C19.5988 24.8267 18.8171 24.325 18.1638 23.835C17.0671 23.0183 15.8305 21.9217 14.4538 20.545C13.0771 19.1683 11.9805 17.9317 11.1638 16.835C10.6738 16.1817 10.1721 15.4 9.65879 14.49L9.37879 13.965C9.26213 13.7783 9.23296 13.5742 9.29129 13.3525C9.34963 13.1308 9.46046 12.9617 9.62379 12.845L12.2838 10.78C12.7038 10.4533 12.9605 10.0217 13.0538 9.485C13.1471 8.94833 13.0421 8.45833 12.7388 8.015L8.01379 0.91C7.68713 0.443333 7.25546 0.151665 6.71879 0.0349998C6.18213 -0.081665 5.68046 0 5.21379 0.279999L2.27379 2.065C1.31713 2.625 0.67546 3.45333 0.348793 4.55C-0.0478736 6.04333 -0.106207 7.65333 0.173793 9.38C0.547126 11.5267 1.44546 13.8017 2.86879 16.205C4.52546 19.005 6.89379 21.945 9.97379 25.025C13.6138 28.665 17.0555 31.3133 20.2988 32.97C22.9355 34.3233 25.4088 35 27.7188 35C28.6988 35 29.6088 34.8833 30.4488 34.65C31.5455 34.3233 32.3738 33.6817 32.9338 32.725L34.7188 29.785C34.9988 29.3183 35.0805 28.8167 34.9638 28.28C34.8471 27.7433 34.5555 27.3117 34.0888 26.985ZM33.7038 29.19L31.9188 32.13C31.4988 32.8533 30.9038 33.32 30.1338 33.53C28.7571 33.9033 27.2638 33.95 25.6538 33.67C23.6471 33.2967 21.5121 32.4217 19.2488 31.045C16.5888 29.435 13.7771 27.1483 10.8138 24.185C6.52046 19.8917 3.65046 15.925 2.20379 12.285C1.10713 9.53167 0.862126 7.05833 1.46879 4.865C1.72546 4.07167 2.19213 3.47667 2.86879 3.08L5.84379 1.295C6.03046 1.17833 6.24046 1.14333 6.47379 1.19C6.70713 1.23667 6.89379 1.365 7.03379 1.575L9.58879 5.425L11.7588 8.645C11.8755 8.83167 11.9163 9.04167 11.8813 9.275C11.8463 9.50833 11.7355 9.695 11.5488 9.835L8.88879 11.9C8.49213 12.2033 8.24129 12.6058 8.13629 13.1075C8.03129 13.6092 8.10713 14.0817 8.36379 14.525L8.57379 14.91C9.08713 15.8667 9.60046 16.695 10.1138 17.395C10.9538 18.5617 12.1205 19.8917 13.6138 21.385C15.1071 22.8783 16.4371 24.045 17.6038 24.885C18.3038 25.3983 19.1321 25.9117 20.0888 26.425L20.4738 26.635C20.9171 26.8917 21.3896 26.9675 21.8913 26.8625C22.393 26.7575 22.7955 26.5067 23.0988 26.11L25.1288 23.45C25.2921 23.2633 25.4905 23.1525 25.7238 23.1175C25.9571 23.0825 26.1671 23.1233 26.3538 23.24L33.4238 27.965C33.6338 28.105 33.7621 28.2917 33.8088 28.525C33.8555 28.7583 33.8205 28.98 33.7038 29.19ZM19.8438 5.845C21.6405 5.845 23.3088 6.3 24.8488 7.21C26.3421 8.07333 27.5205 9.25167 28.3838 10.745C29.2938 12.285 29.7488 13.9533 29.7488 15.75C29.7488 15.9133 29.8071 16.0533 29.9238 16.17C30.0405 16.2867 30.1805 16.345 30.3438 16.345C30.5071 16.345 30.6413 16.2867 30.7463 16.17C30.8513 16.0533 30.9038 15.9133 30.9038 15.75C30.9038 13.7433 30.4021 11.8767 29.3988 10.15C28.4188 8.49333 27.0888 7.175 25.4088 6.195C23.7055 5.16833 21.8505 4.655 19.8438 4.655C19.6805 4.655 19.5405 4.71333 19.4238 4.83C19.3071 4.94667 19.2488 5.08667 19.2488 5.25C19.2488 5.41333 19.3071 5.55333 19.4238 5.67C19.5405 5.78667 19.6805 5.845 19.8438 5.845ZM19.8438 9.345C21.0105 9.345 22.0838 9.63083 23.0638 10.2025C24.0438 10.7742 24.8196 11.55 25.3913 12.53C25.963 13.51 26.2488 14.5833 26.2488 15.75C26.2488 15.9133 26.3071 16.0533 26.4238 16.17C26.5405 16.2867 26.6805 16.345 26.8438 16.345C27.0071 16.345 27.1413 16.2867 27.2463 16.17C27.3513 16.0533 27.4038 15.9133 27.4038 15.75C27.4038 14.3733 27.0655 13.1017 26.3888 11.935C25.7121 10.7683 24.7963 9.84667 23.6413 9.17C22.4863 8.49333 21.2205 8.155 19.8438 8.155C19.6805 8.155 19.5405 8.21333 19.4238 8.33C19.3071 8.44667 19.2488 8.58667 19.2488 8.75C19.2488 8.91333 19.3071 9.05333 19.4238 9.17C19.5405 9.28667 19.6805 9.345 19.8438 9.345ZM19.8438 12.845C20.6605 12.845 21.3488 13.125 21.9088 13.685C22.4688 14.245 22.7488 14.9333 22.7488 15.75C22.7488 15.9133 22.8071 16.0533 22.9238 16.17C23.0405 16.2867 23.1805 16.345 23.3438 16.345C23.5071 16.345 23.6413 16.2867 23.7463 16.17C23.8513 16.0533 23.9038 15.9133 23.9038 15.75C23.9038 15.0033 23.723 14.3208 23.3613 13.7025C22.9996 13.0842 22.5038 12.5883 21.8738 12.215C21.2438 11.8417 20.5671 11.655 19.8438 11.655C19.6805 11.655 19.5405 11.7133 19.4238 11.83C19.3071 11.9467 19.2488 12.0867 19.2488 12.25C19.2488 12.4133 19.3071 12.5533 19.4238 12.67C19.5405 12.7867 19.6805 12.845 19.8438 12.845Z" fill="#EFD45C"/>
</svg>
