<svg width="53" height="53" viewBox="0 0 53 53" fill="none" xmlns="http://www.w3.org/2000/svg">
<g clip-path="url(#clip0_24_388)">
<path d="M52.5152 9.52188C52.1302 9.37634 51.6984 9.57198 51.5528 9.95696C51.3426 10.5166 51.1064 10.9743 50.859 11.3415C50.6439 11.6601 50.4207 11.9092 50.1974 12.1066C50.1974 12.0855 50.1991 12.0629 50.1991 12.0419C50.1991 11.4855 50.1231 10.9889 49.9823 10.5522C49.7687 9.89868 49.3919 9.37955 48.9245 9.04312C48.457 8.70349 47.9135 8.54977 47.3911 8.54977C46.8185 8.54977 46.2637 8.72771 45.806 9.06569C45.5763 9.2339 45.3741 9.44259 45.2139 9.68999C45.0522 9.9375 44.9341 10.2254 44.8792 10.5327C44.8516 10.675 44.8404 10.819 44.8404 10.9614C44.8404 11.4159 44.9665 11.851 45.1704 12.2375C45.4777 12.8214 45.9613 13.3115 46.5485 13.6721C46.893 13.8792 47.2747 14.041 47.6823 14.1412C47.6596 14.1606 47.6369 14.1816 47.6111 14.2027C46.9948 14.7122 46.1408 15.1408 45.2399 15.4351C39.7842 7.89782 27.7005 5.3326 17.5074 11.0066C16.3477 11.6552 15.3093 12.3248 14.3631 12.9961C11.8059 9.91814 5.36851 9.40377 6.19829 11.7991C6.94878 13.9665 8.05515 16.3457 8.56787 17.7545C6.63502 19.3865 4.84451 20.6481 2.4944 21.0848C0.348104 21.4859 -0.289242 22.0552 0.113537 24.1531L1.00149 31.1743C1.00149 31.1743 3.50367 32.6204 4.39163 33.1104C6.3487 34.1941 10.1998 36.5523 15.8916 38.3056L18.0493 45.073H23.4499V39.9732C25.6059 40.2708 27.9253 40.4487 30.413 40.4487C31.7037 40.4487 32.9184 40.3598 34.0602 40.198V45.073H39.4592L41.9663 37.209C47.9379 32.9907 49.4097 25.4422 47.3006 19.3768C46.9755 18.4451 46.5647 17.5587 46.0778 16.7258C46.8832 16.4299 47.6547 16.0401 48.318 15.5467C48.8145 15.1747 49.2513 14.7445 49.5844 14.2382C49.6168 14.1881 49.6474 14.1378 49.6782 14.0845C49.7316 14.0684 49.7833 14.057 49.8351 14.0376C50.4594 13.8177 51.0627 13.4149 51.5916 12.8278C52.1238 12.2374 52.5816 11.4642 52.952 10.4841C53.0975 10.0993 52.9018 9.66753 52.5152 9.52188ZM43.4786 32.3843C40.8406 36.0948 36.3214 38.0583 30.413 38.0583C18.0121 38.0583 10.098 33.5862 6.29383 31.4382C6.02211 31.2829 5.77305 31.1423 5.54821 31.0193C5.05165 30.7443 4.01483 30.1491 3.22398 29.6963L2.4767 23.7781L2.4621 23.7021C2.45082 23.6438 2.44109 23.5905 2.43301 23.5436C2.56241 23.5112 2.72575 23.4757 2.93123 23.4369C6.45563 22.7818 8.89798 20.6532 11.4826 18.4018C12.5452 17.475 13.6871 16.4802 15.007 15.4872L15.3644 15.3368C15.3612 15.3012 15.3563 15.2672 15.3514 15.2333C16.3446 14.507 17.4364 13.7857 18.672 13.0966C21.936 11.2785 25.5849 10.3195 29.2225 10.3195C35.0841 10.3195 40.3488 12.7553 43.3023 16.8377L43.6841 17.3651L44.0124 17.928C44.4282 18.6428 44.7743 19.3933 45.0412 20.1633C46.4854 24.315 45.887 28.9974 43.4786 32.3843ZM48.6917 12.4107C48.6819 12.5288 48.6641 12.6436 48.635 12.7568C48.6204 12.7568 48.6059 12.7585 48.5914 12.7585C48.2905 12.7585 47.9945 12.697 47.7195 12.5903C47.3055 12.4269 46.9415 12.1552 46.6973 11.8511C46.5744 11.699 46.4822 11.5405 46.4207 11.3885C46.3625 11.2381 46.335 11.0941 46.335 10.9615C46.335 10.9065 46.3399 10.8531 46.348 10.8013C46.369 10.6897 46.4095 10.5943 46.4661 10.5054C46.5518 10.3728 46.6828 10.2579 46.8445 10.1738C47.0079 10.0913 47.2004 10.0444 47.3912 10.0444C47.5465 10.0444 47.7001 10.0735 47.8409 10.1367C47.9476 10.182 48.0496 10.2467 48.145 10.3324C48.2873 10.4635 48.4232 10.6478 48.5283 10.9228C48.6318 11.1977 48.7046 11.5649 48.7046 12.0421C48.7046 12.1583 48.6997 12.2813 48.6917 12.4107Z" fill="white"/>
<path d="M14.1609 22.3093H14.0332C13.3733 22.3093 12.8379 22.8447 12.8379 23.5063V26.9919C12.8379 27.6518 13.3733 28.1872 14.0332 28.1872H14.1609C14.8225 28.1872 15.3579 27.6518 15.3579 26.9919V23.5063C15.3579 22.8446 14.8225 22.3093 14.1609 22.3093Z" fill="white"/>
</g>
<defs>
<clipPath id="clip0_24_388">
<rect width="53" height="53" fill="white"/>
</clipPath>
</defs>
</svg>
