<svg width="40" height="40" viewBox="0 0 40 40" fill="none" xmlns="http://www.w3.org/2000/svg">
<g clip-path="url(#clip0_24_400)">
<path d="M11.428 15.5328C10.8353 15.5328 10.3557 16.0125 10.3557 16.6051C10.3557 17.1978 10.8354 17.6774 11.428 17.6774C12.02 17.6774 12.5002 17.1978 12.5002 16.6051C12.5002 16.0124 12.0199 15.5328 11.428 15.5328Z" fill="white"/>
<path d="M15.4021 9.35049C15.4713 10.7591 18.0511 6.4494 17.9253 4.55627C17.7982 2.66455 15.275 6.82729 15.4021 9.35049Z" fill="white"/>
<path d="M3.72696 21.4817L3.72407 21.473C3.72335 21.4716 3.72263 21.468 3.72191 21.4673C3.72191 21.4658 3.72119 21.4658 3.72119 21.4658L3.72696 21.4817Z" fill="white"/>
<path d="M7.18555 1.68874L7.19564 1.67569C7.19564 1.67569 7.19716 1.67417 7.1986 1.6728C7.1986 1.6728 7.19924 1.67056 7.20004 1.66992L7.18555 1.68874Z" fill="white"/>
<path d="M29.3935 39.764L29.3419 39.7966C29.3405 39.7966 29.3398 39.7987 29.3391 39.7987L29.3935 39.764Z" fill="white"/>
<path d="M20.7466 1.29407L20.7552 1.31152L20.7568 1.31225L20.7466 1.29407Z" fill="white"/>
<path d="M19.8427 0.357422C19.8427 0.357422 19.8427 0.357422 19.8418 0.357422L19.8446 0.359222L19.8427 0.357422Z" fill="white"/>
<path d="M34.6287 30.6417C34.6371 30.4849 34.6569 30.338 34.6569 30.1734C34.6576 28.7352 34.351 27.1847 33.6199 25.5784C32.2205 22.4688 29.876 20.7191 27.5337 19.6052L27.5259 19.6009L27.3515 19.5176L27.509 19.5939C25.1758 18.4834 22.8037 17.8852 21.0576 17.041L21.0548 17.0388C19.9415 16.4929 19.3156 15.7631 18.9002 14.6908L18.8988 14.6873L18.896 14.6788L18.884 14.6462L18.879 14.6329C18.8098 14.4598 18.4948 13.4539 18.5039 12.7355V12.7313V12.7227C18.5033 12.5186 18.5273 12.3364 18.5598 12.2205L18.5612 12.2149C18.6686 11.789 19.043 11.108 19.4908 10.3246L19.4923 10.3225C19.9358 9.52781 20.4558 8.58477 20.7511 7.45102C21.1057 6.07852 21.2944 4.8543 21.295 3.78633C21.2908 2.87992 21.1693 2.045 20.7581 1.31602L20.7553 1.31109C20.5434 0.943047 20.2439 0.601875 19.8426 0.358906C19.4478 0.118672 18.9992 0.005 18.55 0.0021875V0.00140625L18.5329 0V0.00140625C18.5301 0.00140625 18.523 0.00210938 18.5201 0.00210938V0.00140625C18.5166 0.00140625 18.5137 0.00210938 18.5109 0.00210938C18.489 0.00210938 18.4601 0.00703125 18.41 0.0141406C17.4973 0.0572656 16.6497 0.468359 15.7723 1.09352L15.7681 1.09633C14.6803 1.88961 13.8891 2.92867 13.2972 4.00664C13.1715 3.7107 13.0534 3.40555 12.9051 3.13852L12.9044 3.13711C12.4998 2.41445 12.0257 1.79852 11.4648 1.32594H11.4641C10.916 0.865391 10.2301 0.514297 9.43889 0.500938V0.497344L9.38655 0.495859C8.50295 0.496563 7.71381 0.971953 7.19827 1.67273C6.68545 2.35789 6.36748 3.2318 6.16334 4.31602V4.31812C6.07428 4.80062 6.03545 5.28305 6.03545 5.75562V5.75922C6.05248 8.09102 6.91702 10.2045 7.5203 11.4287C6.72272 12.0476 5.60733 13.0527 4.70881 14.4457L4.75264 14.3779L4.70811 14.4465C3.56162 16.2343 3.10108 17.6676 3.10108 18.9228C3.09967 20.041 3.47545 20.8908 3.72202 21.4673C4.11827 22.4266 4.82327 23.051 5.53248 23.3703V23.3717C6.03616 23.597 6.48397 23.7249 6.87108 23.845L6.84217 24.04L7.66014 24.1502C7.72092 24.1784 7.76756 24.2003 7.78592 24.2123L7.78733 24.2145C8.05858 24.3839 8.31709 24.6008 8.60459 25.0176C8.88928 25.4337 9.19163 26.0574 9.47413 27.004L9.47561 27.0075C9.76022 27.9661 10.3388 29.5399 10.8502 31.1462V31.1484C11.1031 31.936 11.3362 32.7342 11.5029 33.4321C11.671 34.1258 11.7677 34.7347 11.7643 35.0583V35.0738V35.078L11.7586 35.2003C11.4811 35.4991 11.2641 35.8269 11.144 36.1581C10.9915 36.5749 10.9427 36.9824 10.942 37.3412L10.9428 37.3646V37.3596C10.9449 37.8654 11.0319 38.3027 11.1173 38.6255C11.1611 38.7866 11.2048 38.92 11.2387 39.0168L11.2819 39.1305H11.2825L11.2931 39.1623L11.4344 39.5035L11.6413 40.0001H16.6694H17.0587H29.0178L29.3371 39.8002L29.342 39.7967C29.8351 39.4831 30.6262 38.8254 31.4838 37.8732C31.9316 38.0548 32.4198 38.1656 32.9375 38.1656C35.1273 38.1649 36.8983 36.3919 36.899 34.2048C36.8976 32.6197 35.9651 31.2691 34.6287 30.6417ZM32.9376 36.3494C32.4022 36.3494 31.9204 36.1459 31.5361 35.8132L31.1286 35.4579L30.8022 35.888C29.9108 37.0677 28.9408 37.873 28.488 38.1831H17.669C17.6965 38.0227 17.7424 37.8398 17.823 37.659C17.9904 37.2923 18.2545 36.9505 18.8211 36.7393L18.4764 35.7913C17.6323 36.093 17.1384 36.697 16.8997 37.2522C16.7463 37.6011 16.6828 37.9233 16.6538 38.1832H12.8831C12.8223 37.9635 12.7574 37.664 12.7588 37.3567C12.7616 36.9434 12.8619 36.591 13.1473 36.3466L13.2243 36.2802L13.1487 36.3452C13.3394 36.1798 13.4426 35.9659 13.5012 35.7546C13.5605 35.5412 13.581 35.318 13.581 35.0779C13.5739 33.9209 13.1042 32.2523 12.5808 30.5952C12.0566 28.9499 11.4675 27.3402 11.2174 26.4917C10.8261 25.1658 10.3444 24.2616 9.80319 23.6111C10.494 23.6895 10.9369 23.7312 10.9405 23.7312L11.0317 22.7259C11.031 22.7259 10.6905 22.6942 10.1268 22.632C9.63084 22.5777 8.95983 22.4957 8.20959 22.3925C7.766 22.1954 7.34069 22.0803 6.97905 21.9708C6.59545 21.8563 6.27967 21.742 6.03108 21.5723C5.7817 21.4 5.57748 21.1789 5.39389 20.7586C5.14248 20.1709 4.9185 19.6375 4.9178 18.9227C4.9178 18.1266 5.20319 17.0445 6.23803 15.4261C6.86741 14.4413 7.68397 13.6417 8.34092 13.0963C8.67014 12.823 8.95827 12.6132 9.16319 12.472C9.26491 12.4013 9.34538 12.349 9.40053 12.3137L9.46131 12.2755L9.47897 12.2649L9.92045 12.0022L9.6492 11.5649L9.63233 11.5366C9.44155 11.2329 7.84233 8.42992 7.85225 5.75555C7.85225 5.38117 7.88256 5.00961 7.94975 4.64797C8.11788 3.73391 8.38061 3.11648 8.64905 2.76469C8.92592 2.41156 9.15483 2.31898 9.40202 2.31336C9.64006 2.31125 9.95295 2.42992 10.297 2.71742C11.3355 3.56867 12.4148 5.84742 12.4974 8.67445C12.3109 9.56945 12.253 10.172 12.2508 10.1854L13.2554 10.2822C13.2554 10.2822 13.2631 10.203 13.2836 10.0484C13.3543 9.50664 13.581 8.09023 14.1292 6.58289C14.6738 5.07336 15.5462 3.48961 16.8319 2.56852C17.5876 2.01961 18.1776 1.81266 18.5265 1.81836C18.6898 1.81836 18.802 1.85289 18.9015 1.91227C19.0464 1.99984 19.1898 2.17016 19.3014 2.48664C19.4123 2.79953 19.4794 3.24172 19.4787 3.78641C19.4794 4.63547 19.3204 5.73039 18.9926 6.99477C18.7708 7.85586 18.3442 8.65906 17.9076 9.4325C17.474 10.2081 17.0268 10.9484 16.8071 11.7409C16.7195 12.0637 16.6877 12.3965 16.6877 12.7228C16.6926 14.0304 17.1851 15.2835 17.2005 15.3316H17.1998C17.7395 16.7846 18.7609 17.9614 20.2726 18.6798C22.276 19.6328 24.6226 20.2198 26.7481 21.2433C28.8744 22.2704 30.7633 23.6881 31.9655 26.3293C32.5942 27.7152 32.8393 28.9945 32.8401 30.1734C32.8401 30.6327 32.8019 31.0763 32.7341 31.5057L32.6508 32.027L33.1763 32.0864C34.2493 32.2065 35.0836 33.1043 35.0829 34.2048C35.0808 35.388 34.1229 36.3473 32.9376 36.3494Z" fill="white"/>
<path d="M33.6199 25.5784L33.6211 25.5809L33.6199 25.5784Z" fill="white"/>
</g>
<defs>
<clipPath id="clip0_24_400">
<rect width="40" height="40" fill="white"/>
</clipPath>
</defs>
</svg>
