<svg width="49" height="36" viewBox="0 0 49 36" fill="none" xmlns="http://www.w3.org/2000/svg">
<path d="M43.4493 3.6015H42.762C42.6065 2.01015 41.2618 0.762945 39.631 0.762945C39.1261 0.762945 38.6389 0.882191 38.2014 1.10508C37.4851 0.506939 36.5696 0.165854 35.622 0.165854C34.4287 0.165854 33.3558 0.689445 32.6186 1.51776C32.1666 1.34673 31.6845 1.25649 31.191 1.25649C31.0386 1.25649 30.8862 1.26577 30.7349 1.28242C30.0113 0.667625 29.0875 0.322424 28.1275 0.322424C27.2276 0.322424 26.3734 0.617859 25.6788 1.15284C24.6462 0.404345 23.4083 0 22.1104 0C21.0768 0 20.0804 0.256102 19.1878 0.745432C18.5119 0.265385 17.696 0 16.8583 0C15.4504 0 14.1877 0.717391 13.4641 1.86095C12.8306 1.64428 12.162 1.5323 11.4892 1.5323C9.62927 1.5323 7.86785 2.39698 6.71912 3.83281C6.40187 3.75817 6.07016 3.7374 5.74458 3.77578C5.31124 3.4212 4.76381 3.22108 4.19161 3.22108C3.62552 3.22108 3.08643 3.41497 2.65519 3.76228C1.17562 3.8555 0 5.08921 0 6.59241C0 7.93915 0.943441 9.06911 2.20404 9.35737C1.08642 10.4926 0.456121 12.0187 0.456121 13.6298C0.456121 14.9806 0.898844 16.2776 1.71471 17.3392C1.53326 17.9229 1.441 18.5294 1.441 19.1493C1.441 22.1372 3.60361 24.6709 6.51786 25.1613C6.73559 25.3417 6.95953 25.5148 7.18759 25.6796V27.1798C7.18759 28.6343 7.93714 29.9935 9.13668 30.7803V34.7572C9.13668 35.232 9.52237 35.6176 9.99715 35.6176H15.9573C16.4321 35.6176 16.8178 35.232 16.8178 34.7572V30.7804C17.6088 30.261 18.2039 29.4939 18.5181 28.6136C19.5143 29.2118 20.6579 29.5332 21.8397 29.5332C22.8008 29.5332 23.7297 29.3249 24.5809 28.9257C24.9157 29.6752 25.4632 30.3242 26.1567 30.7804V34.7573C26.1567 35.2321 26.5424 35.6177 27.0172 35.6177H32.9659C33.4417 35.6177 33.8274 35.2321 33.8274 34.7573V30.7804C35.0259 29.9936 35.7755 28.6344 35.7755 27.1799V26.8461C38.4617 26.1836 40.4055 23.7608 40.4055 20.9264C40.4055 20.7657 40.3982 20.6029 40.3858 20.4401C41.1726 19.6874 41.6298 18.6372 41.6298 17.5331C41.6298 16.5648 41.2731 15.6234 40.6408 14.8956C40.6377 14.8324 40.6325 14.7681 40.6284 14.7049H43.4493C46.5097 14.7049 49 12.2147 49 9.15324C49 6.0917 46.5098 3.6015 43.4493 3.6015ZM32.6902 5.18357C33.1692 5.11725 33.5227 4.70563 33.5165 4.22252C33.5165 4.20902 33.5154 4.19553 33.5144 4.17792C33.5195 3.01991 34.463 2.07858 35.622 2.07858C36.2948 2.07858 36.9128 2.38961 37.315 2.93177C37.4809 3.15466 37.7349 3.29468 38.0127 3.31535C38.2905 3.33506 38.5621 3.23448 38.7592 3.03752C38.9915 2.80429 39.3014 2.67672 39.631 2.67672C40.3111 2.67672 40.8637 3.22931 40.8637 3.90938C40.8637 4.0359 40.8088 4.27535 40.8077 4.27745C40.6511 4.77817 40.1826 5.14203 39.631 5.14203C39.3625 5.14203 39.1065 5.056 38.8888 4.8911C38.6669 4.72314 38.3829 4.65988 38.1112 4.71797C37.8385 4.77702 37.6053 4.95024 37.4726 5.19486C37.3451 5.42713 37.1771 5.63136 36.9729 5.80238C36.6018 6.11237 36.5209 6.65041 36.7842 7.05581C37.2237 7.73387 37.4549 8.51968 37.4549 9.32828C37.4549 9.99485 37.3026 10.6335 36.9998 11.2255C36.7934 11.6319 36.9013 12.1274 37.2589 12.4105C37.5575 12.6469 37.7286 12.9983 37.7286 13.3767C37.7286 14.0568 37.176 14.6094 36.4959 14.6094C36.0169 14.6094 35.5919 14.3398 35.3835 13.9044C35.2228 13.5654 34.8827 13.3602 34.5209 13.3602C34.4441 13.3602 33.6127 13.5136 33.2696 13.5136C30.9618 13.5136 29.0832 11.6361 29.0832 9.32828C29.0834 7.2497 30.6343 5.46762 32.6902 5.18357ZM12.1142 33.8958H10.8588V31.4335C11.0662 31.4646 11.2756 31.4812 11.4891 31.4812C11.7006 31.4812 11.9089 31.4646 12.1142 31.4346V33.8958ZM12.6367 29.4897C12.6243 29.4948 11.8644 29.7593 11.4891 29.7593C11.0982 29.7593 10.7219 29.6743 10.3704 29.5053C9.48294 29.0781 8.90967 28.1658 8.90967 27.1799V26.7258C9.49748 27.0212 10.1082 27.2711 10.7374 27.4701C11.7679 27.7956 12.8357 27.9854 13.9202 28.0352C13.8145 28.3368 13.6538 28.6199 13.4412 28.8656C13.2152 29.1268 12.9446 29.3363 12.6367 29.4897ZM15.0969 33.8958H13.8404V31.4346C14.0457 31.4646 14.2551 31.4812 14.4666 31.4812C14.6791 31.4812 14.8896 31.4646 15.0969 31.4335V33.8958ZM15.5841 29.5052C15.3861 29.6006 15.1787 29.668 14.9662 29.7105C15.2752 29.2854 15.5023 28.8095 15.639 28.3057C15.7105 28.3098 15.7832 28.312 15.8547 28.312C16.1885 28.312 16.5171 28.2705 16.8365 28.1907C16.5939 28.7556 16.1543 29.2305 15.5841 29.5052ZM29.1238 33.8958H27.8777V31.4335C28.086 31.4646 28.2964 31.4812 28.509 31.4812C28.7174 31.4812 28.9216 31.4646 29.1238 31.4366V33.8958ZM29.5168 29.5539C29.1995 29.6897 28.8616 29.7592 28.5091 29.7592C28.1182 29.7592 27.7419 29.6742 27.3915 29.5052C26.7767 29.2097 26.3092 28.6778 26.0821 28.0496H28.1659C29.1362 28.0496 30.0953 27.9355 31.0293 27.7169C30.9392 28.1388 30.7464 28.5348 30.4602 28.8666C30.2601 29.0988 29.5862 29.5073 29.5168 29.5539ZM32.1054 33.8958H30.8614V31.4367C31.0626 31.4646 31.2677 31.4813 31.4751 31.4813C31.6887 31.4813 31.8981 31.4647 32.1054 31.4336V33.8958ZM32.5937 29.5052C32.3988 29.5995 32.1956 29.6659 31.9872 29.7073C32.5191 28.9754 32.8093 28.0911 32.8093 27.1798V27.157C32.9783 27.0886 33.1452 27.018 33.31 26.9434C33.5568 26.9839 33.8056 27.0087 34.0534 27.0191C34.0535 27.0191 34.1603 28.738 32.5937 29.5052ZM38.8203 19.2571C38.5176 19.4707 38.3642 19.8397 38.4284 20.2047C38.4709 20.4462 38.4928 20.6899 38.4928 20.9263C38.4928 23.0485 36.9066 24.8357 34.8009 25.0835C34.3344 25.1395 33.8606 25.1157 33.3941 25.012C33.1836 24.9643 32.9628 24.9903 32.7689 25.0846C32.404 25.2618 32.0225 25.4194 31.6348 25.5542C30.5223 25.9409 29.355 26.1368 28.1659 26.1368H25.6052C25.3626 26.1368 25.1283 26.2291 24.951 26.3949C24.8182 26.5193 24.6742 26.6375 24.5228 26.7474C23.74 27.3186 22.8122 27.6203 21.8397 27.6203C20.6828 27.6203 19.5776 27.1838 18.7285 26.3928C18.5513 26.228 18.319 26.1367 18.0764 26.1367H17.0967C16.963 26.1367 16.8303 26.1647 16.709 26.2186C16.2394 26.426 15.7138 26.4581 15.2119 26.2985C15.1414 26.2767 14.7475 26.1367 14.6127 26.1367C14.6127 26.1367 12.3423 25.9719 11.3138 25.6463C10.3455 25.3405 9.428 24.8957 8.58304 24.3234C8.22741 24.0829 7.88221 23.8165 7.55768 23.5334C7.41249 23.4069 7.23219 23.3271 7.04031 23.3043C4.93886 23.0555 3.35372 21.2692 3.35372 19.149C3.35372 18.583 3.46464 18.0335 3.68342 17.5183C3.83167 17.1699 3.76018 16.7666 3.50092 16.4909C2.77108 15.7113 2.36884 14.6953 2.36884 13.6296C2.36884 12.3803 2.92143 11.2057 3.88459 10.4074C4.10021 10.2281 4.22673 9.9627 4.22979 9.68276C4.23391 9.35 4.31372 9.03275 4.46723 8.73827C4.65596 8.37441 4.5927 7.93063 4.30865 7.6352C4.02566 7.33976 3.58504 7.25678 3.2139 7.42991C3.0936 7.4859 2.96613 7.5149 2.83444 7.5149C2.32645 7.5149 1.91282 7.10127 1.91282 6.59222C1.91282 6.08318 2.32645 5.66955 2.83444 5.66955C2.86554 5.66955 3.43057 5.79502 3.77472 5.33258C3.87215 5.20089 4.02977 5.13352 4.19151 5.13352C4.36875 5.13352 4.53566 5.22166 4.6373 5.3699C4.88402 5.7307 5.34435 5.87684 5.75492 5.72649C6.02863 5.62591 6.31784 5.66017 6.5594 5.81148C6.77712 5.94938 7.04145 5.99293 7.29239 5.93273C7.54332 5.87263 7.75894 5.71396 7.89053 5.49212C8.64324 4.22941 10.022 3.44455 11.4891 3.44455C12.193 3.44455 12.8627 3.61356 13.4796 3.94632C13.7315 4.08212 14.0301 4.09868 14.2945 3.99092C14.5599 3.88306 14.7621 3.66227 14.8471 3.38961C15.1229 2.50637 15.9315 1.91224 16.8584 1.91224C17.4483 1.91224 17.9957 2.15074 18.4 2.58408C18.7286 2.93655 19.2698 2.98948 19.6596 2.70639C20.377 2.18701 21.2241 1.91224 22.1105 1.91224C23.2187 1.91224 24.2638 2.34253 25.0527 3.12212C25.2466 3.31391 25.512 3.4145 25.7836 3.39689C26.0552 3.38033 26.3072 3.24864 26.475 3.03609C26.8783 2.52704 27.4807 2.23467 28.1275 2.23467C28.7299 2.23467 29.3042 2.49383 29.7044 2.94478C29.9429 3.21333 30.3109 3.32626 30.6582 3.23716C30.8324 3.19151 31.0117 3.16978 31.1911 3.16978C31.3704 3.16978 31.5457 3.19256 31.7156 3.23611C31.6991 3.30453 31.6835 3.37296 31.671 3.44244C29.0584 4.15361 27.1706 6.55988 27.1706 9.32799C27.1706 12.6901 29.9066 15.426 33.2697 15.426C33.5372 15.426 33.8046 15.4084 34.07 15.3741C34.6599 16.0874 35.5505 16.5218 36.496 16.5218C37.3927 16.5218 38.2025 16.1444 38.7757 15.541C38.8214 15.7121 38.9137 15.8697 39.0453 15.993C39.4787 16.3974 39.7172 16.9438 39.7172 17.5326C39.7171 18.2173 39.3813 18.8621 38.8203 19.2571ZM43.4493 12.7921H39.5875C39.4952 12.3038 39.29 11.8466 38.9862 11.4547C39.1261 11.0825 39.2962 10.2697 39.2983 10.251C39.3439 9.94834 39.3688 9.64046 39.3688 9.32837C39.3688 8.51145 39.206 7.71109 38.893 6.96776C39.1324 7.02585 39.3793 7.05485 39.6311 7.05485C40.7799 7.05485 41.7865 6.43594 42.336 5.51432H43.4494C45.4554 5.51432 47.0873 7.14615 47.0873 9.15324C47.0873 11.1593 45.4554 12.7921 43.4493 12.7921Z" fill="white"/>
<path d="M41.3333 9.81084C41.9376 9.81084 42.4274 9.321 42.4274 8.71676C42.4274 8.11252 41.9376 7.62268 41.3333 7.62268C40.7291 7.62268 40.2393 8.11252 40.2393 8.71676C40.2393 9.321 40.7291 9.81084 41.3333 9.81084Z" fill="white"/>
<path d="M10.22 9.40171C9.48805 9.20638 8.7007 9.41721 8.16515 9.95276C7.62911 10.4889 7.41828 11.2763 7.61476 12.0083C7.71802 12.3926 8.06562 12.646 8.44556 12.646C8.51935 12.646 8.59457 12.6365 8.66931 12.6164C9.1285 12.4931 9.40077 12.021 9.27741 11.5618C9.23932 11.4203 9.27865 11.2739 9.3824 11.1701C9.48623 11.0663 9.63314 11.0266 9.77554 11.065C10.2345 11.1876 10.7064 10.9149 10.8292 10.4555C10.9521 9.99621 10.6793 9.5244 10.22 9.40171Z" fill="white"/>
<path d="M21.4176 14.0508C20.8026 13.4358 19.8981 13.1931 19.0568 13.4177C18.5976 13.5405 18.3247 14.0122 18.4473 14.4714C18.5701 14.9307 19.0421 15.2035 19.5012 15.0809C19.7504 15.0144 20.0183 15.086 20.2004 15.2681C20.3823 15.45 20.454 15.7172 20.3873 15.9655C20.2639 16.4246 20.5362 16.8967 20.9953 17.02C21.0701 17.0401 21.1452 17.0497 21.2192 17.0497C21.599 17.0497 21.9467 16.7963 22.0499 16.4119C22.2756 15.5714 22.0333 14.6665 21.4176 14.0508Z" fill="white"/>
<path d="M22.4916 5.05011C21.6508 4.8255 20.7461 5.0682 20.1309 5.68328C19.515 6.29904 19.2728 7.20382 19.4986 8.04457C19.6018 8.42901 19.9494 8.68233 20.3293 8.68233C20.4032 8.68233 20.4784 8.67276 20.5531 8.65267C21.0122 8.5293 21.2846 8.0572 21.1611 7.59811C21.0944 7.34986 21.1661 7.08266 21.3481 6.90063C21.5302 6.7186 21.798 6.64673 22.0473 6.71353C22.5063 6.83612 22.9784 6.56328 23.101 6.1039C23.2238 5.64472 22.951 5.1729 22.4916 5.05011Z" fill="white"/>
<path d="M13.1163 19.5593C12.5009 18.9443 11.5965 18.7017 10.7554 18.9265C10.2961 19.0492 10.0233 19.5211 10.1461 19.9803C10.2689 20.4396 10.7405 20.7128 11.2001 20.5896C11.4491 20.5231 11.717 20.5948 11.899 20.7767C12.081 20.9587 12.1527 21.226 12.086 21.4743C11.9627 21.9334 12.235 22.4055 12.694 22.5288C12.7689 22.5489 12.8439 22.5585 12.9179 22.5585C13.2977 22.5585 13.6454 22.3051 13.7486 21.9207C13.9743 21.0801 13.7321 20.1753 13.1163 19.5593Z" fill="white"/>
<path d="M31.0193 19.1621C30.2873 18.9668 29.4997 19.1776 28.9645 19.7131C28.4284 20.2492 28.2176 21.0367 28.4141 21.7686C28.5173 22.153 28.8649 22.4062 29.2449 22.4062C29.3187 22.4062 29.3939 22.3967 29.4686 22.3766C29.9277 22.2533 30.2001 21.7812 30.0767 21.322C30.0388 21.1806 30.0781 21.0341 30.1818 20.9303C30.2855 20.8264 30.4325 20.7868 30.5749 20.8251C31.0339 20.9479 31.5061 20.675 31.6287 20.2156C31.7514 19.7567 31.4787 19.2847 31.0193 19.1621Z" fill="white"/>
</svg>
