<svg width="37" height="56" viewBox="0 0 37 56" fill="none" xmlns="http://www.w3.org/2000/svg">
<path d="M15.2365 28.0186L14.6163 28.014C14.4046 28.014 14.2188 28.1119 14.1056 28.2795L13.2257 29.1154C13.1481 29.1892 13.092 29.2779 13.0604 29.374L10.5003 31.457C10.173 31.2272 9.79522 31.1185 9.33451 31.1185C9.16272 31.1185 8.97701 31.1324 8.73223 31.1649C7.12381 31.3715 5.79451 31.2912 4.53096 30.9147C4.43439 30.8868 4.03687 30.7434 3.57695 30.5776C1.35162 29.7782 0.681799 29.5595 0.462099 29.5595C0.301039 29.5595 0.134546 29.6668 0.0788778 29.8191L0.0229318 29.9718C-0.0118897 30.0679 -0.00678194 30.1738 0.0363966 30.2666C0.0795752 30.3595 0.158364 30.4305 0.254611 30.4649L3.42981 31.5961C3.39267 31.8366 3.45303 32.02 3.52778 32.1465C3.77849 32.5709 4.37946 32.7603 5.47574 32.7603C5.5412 32.7603 5.60574 32.7596 5.66934 32.7583C5.70184 32.7676 5.73249 32.7723 5.76452 32.7769C6.01941 32.8048 6.27705 32.7908 6.53598 32.7761C6.96266 32.7529 7.40331 32.7669 7.84099 32.7735C8.41141 32.7828 8.9465 32.7967 9.57756 32.7693C10.2186 32.7414 10.9336 32.7094 11.5765 32.2817C11.4024 32.5036 11.233 32.726 11.0675 32.9434C10.8521 33.2266 10.639 33.5061 10.4257 33.772C9.4698 34.9639 8.66115 36.0598 7.95372 37.1216C7.83858 37.2948 7.73133 37.4889 7.62779 37.677C7.45647 37.9881 7.27911 38.3092 7.0758 38.5156C7.00012 38.5917 6.90541 38.653 6.80512 38.7176C6.56741 38.8712 6.24199 39.0811 6.13688 39.5722C6.01059 40.1615 6.3017 40.6977 6.53524 41.1282C6.59745 41.2429 6.65827 41.3543 6.70842 41.4625C6.88159 41.8376 7.04734 42.2177 7.21319 42.5976C7.32879 42.8627 7.4444 43.1281 7.56279 43.3912L8.35997 45.1669C8.79083 46.1259 9.22122 47.0846 9.65041 48.0443C9.78226 48.3396 9.90251 48.6669 10.0297 49.0137C10.3705 49.944 10.757 50.9981 11.5001 51.6414C13.1305 53.0531 14.8482 54.3995 16.6066 55.6444C16.7714 55.7614 16.9989 55.7293 17.126 55.5724C17.2532 55.415 17.2369 55.1861 17.0888 55.0493C16.5917 54.5901 16.0435 54.1769 15.5134 53.7776C15.2274 53.5622 14.9415 53.3467 14.6649 53.1251C13.8447 52.4676 13.4511 51.9663 12.8992 51.2094C12.9006 51.206 12.9026 51.2048 12.9038 51.2002C12.9512 51.1041 12.9563 50.9922 12.9177 50.8919C12.7784 50.5325 12.6415 50.1741 12.5045 49.8159C11.8704 48.1568 11.2148 46.4409 10.3904 44.7921C9.83691 43.6851 9.29063 42.5489 8.76274 41.4498C8.55938 41.0273 8.35649 40.6043 8.15244 40.182C8.42915 38.9913 9.17247 37.9095 9.83069 36.9513C10.3696 36.1659 10.9712 35.3973 11.5524 34.6538L11.8509 34.2708C11.9721 34.1157 12.0951 33.9611 12.2186 33.8074C11.849 35.5506 12.1485 37.149 13.1117 38.5653C13.7857 39.5562 14.8011 40.2398 16.1299 40.5968C16.886 40.7997 17.6429 40.9023 18.3798 40.9023L18.4582 40.9019L18.5451 40.9023C19.282 40.9023 20.0392 40.7992 20.795 40.5968C22.1238 40.2398 23.1392 39.5562 23.8135 38.5653C24.7763 37.149 25.076 35.5506 24.7062 33.8074C24.8306 33.9611 24.9532 34.1157 25.0739 34.2708L25.3734 34.6538C25.9546 35.3972 26.556 36.1659 27.0951 36.9513C27.7533 37.9095 28.4967 38.9913 28.7734 40.182C28.5691 40.6045 28.3662 41.0271 28.1631 41.4498C27.6352 42.5488 27.0889 43.6851 26.5354 44.7921C25.711 46.4409 25.0555 48.1568 24.4214 49.8159C24.2849 50.1743 24.1474 50.5325 24.0082 50.8919C23.971 50.9922 23.9757 51.1041 24.0221 51.2002C24.0237 51.2036 24.0252 51.2048 24.0267 51.2094C23.4747 51.9663 23.081 52.4676 22.261 53.1251C21.9843 53.347 21.6987 53.562 21.4124 53.7776C20.8823 54.1769 20.3341 54.5901 19.8369 55.0493C19.6884 55.1862 19.6721 55.4151 19.7998 55.5724C19.8755 55.6652 19.986 55.7145 20.0979 55.7145C20.1745 55.7145 20.252 55.6912 20.3193 55.6439C22.0773 54.3994 23.7956 53.0526 25.4258 51.641C26.1685 50.9976 26.5552 49.9435 26.8962 49.0132C27.0234 48.6664 27.1437 48.3384 27.2755 48.0439C27.7045 47.084 28.1352 46.1255 28.5657 45.1664L29.3628 43.3906C29.4812 43.1269 29.5964 42.8621 29.7124 42.597C29.8782 42.2172 30.0439 41.8372 30.2172 41.462C30.2669 41.3534 30.3282 41.2419 30.3904 41.1277C30.624 40.6973 30.9148 40.161 30.7888 39.5718C30.6839 39.0812 30.3584 38.8709 30.1206 38.7171C30.0203 38.6521 29.9251 38.5913 29.8499 38.5151C29.6461 38.309 29.4692 37.9877 29.2979 37.6765C29.1944 37.4885 29.0876 37.294 28.972 37.1211C28.2646 36.0589 27.456 34.9634 26.5 33.7715C26.2865 33.5055 26.0738 33.2259 25.8583 32.9429C25.693 32.7256 25.5235 32.5032 25.3492 32.2808C25.9925 32.7088 26.7109 32.7404 27.3759 32.7698C27.9443 32.7931 28.5143 32.7838 29.0848 32.7729C29.5175 32.7637 29.9525 32.7544 30.3899 32.7756C30.6485 32.7895 30.9032 32.8035 31.1636 32.776C31.1961 32.7729 31.2253 32.7667 31.2565 32.7574C31.3201 32.7586 31.3846 32.7594 31.4501 32.7594C32.5465 32.7594 33.1473 32.57 33.3981 32.1456C33.4729 32.0193 33.5341 31.8355 33.4961 31.5952L36.6713 30.464C36.7674 30.4315 36.8463 30.3586 36.8895 30.2657C36.9313 30.1729 36.9378 30.067 36.9034 29.9714L36.8472 29.8177C36.792 29.6668 36.6258 29.5591 36.4647 29.5591C36.2451 29.5591 35.5759 29.7777 33.3505 30.5772C32.8899 30.7425 32.4928 30.8855 32.3962 30.9143C31.1317 31.2909 29.8042 31.3716 28.1945 31.1646C27.9499 31.1321 27.7641 31.1181 27.5923 31.1181C27.1317 31.1181 26.7538 31.2268 26.4265 31.4566L23.8665 29.3736C23.834 29.278 23.7787 29.1888 23.7007 29.1146L22.8208 28.279C22.7071 28.1109 22.5213 28.0134 22.3041 28.0134L21.6899 28.0181C21.6853 27.7613 21.6806 27.4999 21.6713 27.2432L21.832 27.2061C21.9425 27.1875 22.0725 27.1559 22.2001 27.0886L22.3831 26.9925C24.5907 25.8321 26.8731 24.6322 29.1065 23.4279C29.5652 23.1809 30.0054 22.8971 30.4316 22.6216C30.5499 22.6263 30.6688 22.5984 30.7733 22.5399C31.2157 22.3946 31.5646 22.044 31.8398 21.4704C32.0849 20.9586 32.3123 20.4308 32.5322 19.9207C32.6413 19.6676 32.7499 19.4154 32.8609 19.1638C32.9217 19.0268 32.9333 18.8787 32.898 18.7543C32.8887 18.4748 33.5804 17.4492 33.8413 17.0634C33.988 16.8461 34.1119 16.6623 34.1811 16.5432C34.9817 15.1611 34.9786 13.8234 34.9751 12.4076L34.9748 12.1137C34.9748 12.012 34.9 11.9145 34.8281 11.8425C34.7556 11.7706 34.6238 11.7306 34.5221 11.7306C34.1437 11.7306 34.1321 11.8644 34.0161 13.145C33.9929 13.4198 33.9604 13.7611 33.9497 13.8198C33.8559 14.2056 33.6632 14.5326 33.4402 14.912L33.3171 15.1228C33.0316 15.618 32.7149 16.1212 32.3796 16.6537C31.3986 18.2119 30.3848 19.8227 29.9641 21.5159C29.7616 21.639 29.191 21.8743 28.9624 21.9691C28.7962 22.0373 28.6643 22.0926 28.6072 22.1209L23.6211 24.6132C23.8045 24.375 23.9879 24.1275 24.1608 23.8755C24.742 23.0294 25.3151 22.1585 25.869 21.3169C26.3447 20.5938 26.8207 19.8707 27.3067 19.1545C27.5222 18.8365 27.8239 18.497 28.1427 18.1376C29.1512 17.001 30.4063 15.587 29.5697 13.9356C29.5511 13.8938 29.5233 13.8571 29.4977 13.8232C29.4792 13.6844 29.4606 13.5572 29.4346 13.4379C29.0813 11.7784 28.682 10.0092 28.214 8.02972C28.3115 6.16724 27.321 4.75066 26.3631 3.38074L26.3167 3.31713C25.795 2.57135 25.2609 1.83415 24.7255 1.09445L24.0499 0.160079C23.9306 -0.00613516 23.7017 -0.0497777 23.5306 0.0616508C23.3592 0.172151 23.3044 0.398258 23.4061 0.57529L24.0509 1.68999C24.5588 2.56656 25.066 3.44193 25.5605 4.32458C25.664 4.50937 25.7777 4.69415 25.8924 4.87857C25.9644 4.99464 26.0359 5.11071 26.1055 5.22725C26.1241 5.27553 26.1534 5.32475 26.1984 5.38743C26.4101 5.76257 26.5262 6.05024 26.5749 6.32027C27.0295 8.83526 27.4204 11.4069 27.7978 13.8939C27.8986 14.5567 27.9994 15.2197 28.1015 15.8821C27.809 16.1542 27.5394 16.5772 27.2415 17.072C27.1426 17.2364 27.0549 17.3826 26.9815 17.4848L25.2699 19.8666C24.0976 21.4997 22.9276 23.1346 21.7668 24.7753C21.6345 24.9614 21.5361 25.1592 21.4516 25.3579C21.3267 25.0315 21.1266 24.7292 20.7857 24.5117C20.6678 24.4365 20.6381 24.3947 20.6348 24.1858C20.6209 23.2333 19.9093 22.5581 19.0156 22.7085C18.9018 22.7271 18.802 22.7963 18.7449 22.897C18.6878 22.9978 18.679 23.1185 18.7217 23.2262L18.9682 23.8588L18.4461 23.8402L17.9559 23.8588L18.2024 23.2262C18.2442 23.1185 18.2349 22.9973 18.1792 22.897C18.1221 22.7967 18.0223 22.7276 17.9085 22.7085C17.0159 22.5576 16.3027 23.2334 16.2893 24.1858C16.2867 24.3947 16.2568 24.436 16.1388 24.5117C15.7976 24.729 15.5976 25.0311 15.4725 25.3579C15.3876 25.1592 15.2896 24.9624 15.1578 24.7757C13.997 23.1346 12.8269 21.4997 11.6546 19.8666L9.94295 17.4844C9.86959 17.3822 9.78185 17.236 9.68295 17.0721C9.38488 16.5773 9.11564 16.1541 8.82296 15.8822C8.9251 15.2197 9.02538 14.5568 9.1266 13.894C9.50406 11.407 9.89495 8.83498 10.3495 6.32036C10.3983 6.05015 10.5148 5.76266 10.7066 5.41853C10.7077 5.41691 10.7483 5.35957 10.7483 5.35817C10.7762 5.31639 10.8017 5.27321 10.8203 5.22632C10.8895 5.10978 10.961 4.99418 11.0325 4.87857C11.1467 4.69425 11.2609 4.50946 11.3645 4.32458C11.8589 3.44193 12.3661 2.56647 12.8739 1.68999L13.5187 0.57529C13.6209 0.397933 13.5661 0.17229 13.3943 0.0616508C13.223 -0.0493135 12.9946 -0.00567089 12.875 0.160079L12.1994 1.09445C11.6639 1.83406 11.1295 2.57135 10.6082 3.31713L10.5618 3.38074C9.60351 4.75066 8.61305 6.16724 8.71083 8.02972C8.24283 10.0088 7.8435 11.7779 7.49027 13.4379C7.46706 13.5572 7.44384 13.6844 7.42713 13.8232C7.39927 13.8557 7.37513 13.8952 7.3547 13.9356C6.5181 15.587 7.77302 17.001 8.78173 18.1376C9.10116 18.4974 9.40201 18.8365 9.61758 19.1545C10.1036 19.8707 10.5797 20.5938 11.0554 21.3169C11.6093 22.1586 12.1824 23.0294 12.7635 23.8755C12.9367 24.1276 13.1201 24.375 13.3032 24.6132L8.31707 22.1209C8.26043 22.093 8.12811 22.0373 7.96236 21.9691C7.73393 21.8748 7.16328 21.6394 6.96075 21.5159C6.54011 19.8227 5.52606 18.2123 4.54512 16.6537C4.20991 16.1209 3.89298 15.618 3.60754 15.1228L3.48451 14.912C3.26118 14.5331 3.06897 14.2057 2.977 13.8279C2.96307 13.7615 2.93521 13.4203 2.90875 13.1455C2.79314 11.865 2.78107 11.7311 2.40281 11.7311L2.33364 11.7307C2.23196 11.7307 2.13399 11.7725 2.06249 11.8431C1.99053 11.9151 1.95014 12.0126 1.95014 12.1142L1.94976 12.4081C1.94628 13.8241 1.94512 15.1621 2.74388 16.5438C2.81306 16.6632 2.93656 16.847 3.08374 17.064C3.34513 17.4498 4.03849 18.4752 4.03088 18.7365C3.99374 18.8791 4.00302 19.0272 4.06338 19.1641C4.17481 19.4153 4.28299 19.6678 4.39209 19.921C4.61216 20.4313 4.8392 20.9591 5.08448 21.4704C5.35934 22.0443 5.70857 22.3949 6.15095 22.5402C6.25495 22.6006 6.37195 22.6275 6.49266 22.6219C6.91841 22.8973 7.35878 23.1813 7.81722 23.4283C10.0506 24.6324 12.3331 25.8323 14.5407 26.9927L14.7237 27.0888C14.8509 27.1557 14.9809 27.1854 15.0719 27.2017L15.2525 27.2434C15.2478 27.4997 15.2432 27.7563 15.2339 28.0133L15.2365 28.0186Z" fill="white"/>
</svg>
