<svg width="33" height="33" viewBox="0 0 33 33" fill="none" xmlns="http://www.w3.org/2000/svg">
<path d="M16.5 33C7.425 33 0 25.575 0 16.5C0 7.425 7.425 0 16.5 0C25.575 0 33 7.425 33 16.5C33 25.575 25.575 33 16.5 33ZM13.0625 23.375C13.8875 27.6375 15.4 30.25 16.5 30.25C17.6 30.25 19.1125 27.6375 19.9375 23.375H13.0625ZM22.825 23.375C22.4125 25.7125 21.725 27.9125 20.9 29.5625C24.0625 28.4625 26.8125 26.2625 28.4625 23.375H22.825ZM4.5375 23.375C6.1875 26.2625 8.9375 28.4625 12.1 29.5625C11.275 27.9125 10.5875 25.7125 10.175 23.375H4.5375ZM23.2375 20.625H29.7C29.975 19.3875 30.25 17.875 30.25 16.5C30.25 15.125 29.975 13.6125 29.5625 12.375H23.1C23.375 13.75 23.375 15.125 23.375 16.5C23.375 17.875 23.375 19.25 23.2375 20.625ZM12.65 20.625H20.4875C20.625 19.3875 20.7625 18.0125 20.7625 16.5C20.7625 14.9875 20.625 13.6125 20.4875 12.375H12.65C12.5125 13.6125 12.375 14.9875 12.375 16.5C12.375 18.0125 12.5125 19.3875 12.65 20.625ZM3.4375 20.625H9.9C9.7625 19.25 9.7625 17.875 9.7625 16.5C9.7625 15.125 9.7625 13.75 9.9 12.375H3.4375C3.025 13.6125 2.75 15.125 2.75 16.5C2.75 17.875 3.025 19.3875 3.4375 20.625ZM22.825 9.625H28.4625C26.8125 6.7375 24.0625 4.5375 20.9 3.4375C21.725 5.0875 22.4125 7.2875 22.825 9.625ZM13.0625 9.625H20.075C19.25 5.3625 17.7375 2.75 16.6375 2.75C15.5375 2.75 13.8875 5.3625 13.0625 9.625ZM4.5375 9.625H10.175C10.5875 7.2875 11.275 5.0875 12.1 3.4375C8.9375 4.5375 6.325 6.7375 4.5375 9.625Z" fill="white"/>
</svg>
